<svg enable-background="new 0 0 313.4 404" viewBox="0 0 313.4 404" xmlns="http://www.w3.org/2000/svg"><ellipse cx="156.7" cy="401.4" fill="#bdb6b1" rx="156.7" ry="2.6"/><path d="m201.9 256.8c-1.2-16.7-3.1-44.8 9-46.4 1.5-.2 2.9.2 4 1.3 7.3 6.8 5.1 38.7 5 40l-1.6-.1c0-.3 2.2-32.4-4.5-38.8-.8-.8-1.7-1.1-2.7-.9-10.6 1.5-8.7 29.6-7.7 44.7z" fill="#5981a5"/><path d="m240.6 333.9-15-86.2-7.4-1.2 5.5 88.7z" fill="#80a6ce"/><path d="m193 334.7 1.8-78 23.4-10.2 5.5 88.7z" fill="#5981a5"/><path d="m194.8 256.7 23.4-10.2 5.5 88.7z" fill="#507a99"/><path d="m185.6 256.3s-52.8 22.2-54.8 55.6 67.1-37.3 74.2-48.7z" fill="#8e4365"/><path d="m134.6 179.9-7-7.3-1.6-11.9 4.8 8.5 17.7-12.8z" fill="#8e4365"/><path d="m131.7 145.6-5.7 8.3.5 11.8 3.3-9 19.6 9.3z" fill="#af4a73"/><path d="m150.6 125.1c-2.4.1-23.3-12.4-23.6-17.9l-9.2 5.7s3.5 23.9 28.2 27.1z" fill="#af4a73"/><path d="m201.1 202.5c-1.6-6.9-5-58.9-.9-73.5l-10.2-13.3s-13 67.2-3.2 110.6z" fill="#af4a73"/><path d="m212.4 216.9c.3.8-1.5.6-2.9 1.1-1.3.5-2.4.7-2.7-.1s.5-1.9 1.8-2.5c1.3-.5 3.5.6 3.8 1.5z" fill="#ffcd9c"/><path d="m209.2 202.6c1.4 2.5 7.2 12.1 5 13.9-1.1.9-3.3 2.3-5-.5-1.3-2.2-2.4-7.7-2.3-12.7z" fill="#ffcd9c"/><path d="m167.8 13c-11.3 5.3-32.8 15.2-35 45.9-1.2 16.6 5.6 46.6 29.4 48.2s40.6 3.8 34.7-45.5c-5.9-49.2-13.5-56.7-29.1-48.6z" fill="#602721"/><path d="m198.5 77.1c0-.4 0-.7 0-1.1 0-.7 0-1.4 0-2.1 0-.9-.1-1.8-.1-2.7-.2-3.3-.4-6.8-.8-10.7-4-36.5-8.6-51-18.8-54.2-3.3-1.6-7-1.5-11.1-.1-1.1.2-2.2.4-3.4.7-.8-.3-1.6-.5-2.3-.6-2.5-.9-5.3-.5-8.2.9-6.9 2.8-13.4 10.9-18.8 23-3.9 8.3-6.8 18.1-7.8 28.1-1.6 17 6.2 47.3 32 48.9 5.2.3 10.2.7 14.6.6-3.6 0-7.4-.3-11.5-.6-23.8-1.6-29.6-31.6-28.4-48.2 1.3-18.5 9.2-29.4 17.8-36.4 14.2.9 23.9 19 30 45.1 2.8 12.1-.4 29.2 9.3 35 2.5-2.3 4.5-5.6 5.8-10.2-.1.2-.1.4-.2.6.9-2.8 1.4-6.2 1.7-10.2.1-1.8.2-3.7.2-5.8z" fill="#9e433c"/><path d="m133.8 59c.8-10.9 3.9-19.1 8-25.5-2.8-.2-5.5-.5-8-1-3.4 7.8-5.9 16.7-6.8 25.8-1.6 17 6.2 47.3 32 48.9 5.2.3 10.2.7 14.6.6-3.6 0-7.4-.3-11.5-.6-23.7-1.6-29.5-31.6-28.3-48.2z" fill="#77392f"/><path d="m198.4 71.2c-.2-3.3-.4-6.8-.9-10.7-1.9-16.9-3.8-29.1-6.5-37.6-5.7 3.7-14.2 6.9-24.2 8.8 6.3 7.9 11.1 20.5 14.7 35.9 2.8 12.1-.4 29.2 9.3 35 2.5-2.3 4.5-5.6 5.8-10.2-.1.2-.1.4-.2.6.9-2.8 1.4-6.2 1.7-10.2.1-1.8.2-3.8.2-5.8 0-.4 0-.7 0-1.1 0-.7 0-1.4 0-2.1.2-.7.1-1.6.1-2.6z" fill="#77392f"/><path d="m168.6 59.6-13.7 2.6-.5 33.6 14.4-.9z" fill="#ef8f6f"/><path d="m157.6 86.7c-4.6-5.1-24.3 19.2-45.6 45.1-5.6 6.8-6.5 18.3 5.1 5.9 23.8-25.3 42.9-48.3 40.5-51z" fill="#ffc397"/><path d="m123 131.4c20.9-22.8 36.8-42.3 34.6-44.7-4.1-4.5-19.9 13.9-38.2 36.1 1.7 2.3 2.9 5.3 3.6 8.6z" fill="#ef8f6f"/><path d="m135 101.9-17.2 11c7.3 8.7 13.1 12.8 27.9 14.5l.3-11.5c-8.3-5.1-11-14-11-14z" fill="#e06994"/><path d="m157.4 234.4-11.6 2.8c-4.1 68.1 14.1 121.2 14.8 161.9h4.4c-1.3-47.9-10.2-105.5-7.6-164.7z" fill="#ffc397"/><path d="m169.7 235.2 11.3 2.8c6.8 67.6-8.6 120.4-7.7 160.8h-4.2c-.6-47.6 5.6-104.8.6-163.6z" fill="#ffc397"/><path d="m157.4 234.4-11.6 2.8c-1.2 20.2-1 47.1 2.3 66.8 3.6-3.4 6.3-5.6 10.1-7-.8-17.3-1.6-44.8-.8-62.6z" fill="#ef8f6f"/><path d="m169.7 235.2c1.3 14.9 1.5 37.8 2 52.2 3.7-1.9 7.3-3.3 11-5 .8-13.8-.6-33.5-1.7-44.4z" fill="#ef8f6f"/><path d="m177.2 89.2c11.3-3.1 27 83.4 33.1 117.7l-2.8 1.5s-7.4-28.8-15.5-57.7c-9.2-32.8-18.1-60.6-14.8-61.5z" fill="#ffcd9c"/><path d="m198.2 144.5c-5.5-28.2-14.2-56.7-21-55.2-3.4 1 4.3 27.9 14.2 59.4 2.1-2 4.4-3 6.8-4.2z" fill="#ef8f6f"/><path d="m188.8 106.5 11.4 22.5c-13.2 8.2-24.3 10.3-36.4 5l3.9-15c13.1-3.2 21.1-12.5 21.1-12.5z" fill="#e06994"/><path d="m186.7 108.6c-3.6 3.4-9.5 8.1-19 10.4l-3.9 15c9.3 4.1 18 3.8 27.5-.3-1.2-3.9-6-15.2-4.6-25.1z" fill="#ce5788"/><path d="m130.8 311.8c6.4-15.7 19.5-42 74.2-48.7 0 0-5.4-69-15.1-107.5-2.8-11 .3-29.8-1.2-39.5-2.9-18.6-7.9-21-9.5-26-2.4-7.4-29.6-7.6-34.3 1.8-2.9 5.7-1.2 36-3.4 72.8-3.8 64.2-10.7 147.1-10.7 147.1z" fill="#d6859f"/><path d="m182.1 263.9c2.2-8.5 3.1-30.6 5.2-31.2s5.2 28.9 5.2 28.9z" fill="#c46c8c"/><path d="m168.9 269.5c-6.3-14.4-7.2-42.3-10.8-41-3.7 1.3-6.3 50.9-6.3 50.9z" fill="#c46c8c"/><path d="m152.8 86 7.4 16.9 10.1-17.9s-6.2-1.4-9.4-1.2c-3.3.3-8.1 2.2-8.1 2.2z" fill="#ffbdd8"/><path d="m150.9 87.7c.1-.3.3-.6.4-.8-3 1.2-5.2 2.9-6.4 5-3.7 6.9-6.2 36.3-3.8 70.7-4 31.2-10.3 149.3-10.3 149.3 3.5-8.6 9-20.3 22.1-30.3-2.3-55.8-11-173.3-2-193.9z" fill="#c46c8c"/><path d="m189.4 119.5c-9.9 9.5-30.4 11.8-44.1 9.9l1.3 28.8 42.5-8.2z" fill="#c46c8c"/><path d="m146.3 181 45.5-16.5-.6-3.3-44.7 8.5z" fill="#c46c8c"/><path d="m190.1 147.7 2.6 15.7c-15.7 2.1-33.7 6.7-55.3 13.4l1.3-21.3c20.2-.7 37.2-3.5 51.4-7.8z" fill="#f7a1c0"/><path d="m150.6 154.9-12 .6-1.3 21.3 14-4.1c-2.3-10.3-1.4-14.3-.7-17.8z" fill="#dd85a9"/><path d="m151.9 401.1h14.6s-1.8-7.4-4.5-6.4c-3.4 1.3-10.1 6.4-10.1 6.4z" fill="#c6b38b"/><path d="m178.1 401.1h-10.9s2.6-7.5 5-6.5c2.9 1.3 5.9 6.5 5.9 6.5z" fill="#c6b38b"/><path d="m154.3 85.7 5.6 12.5 8.9-13.5s-4.3-3.8-7.5-3.6c-3.3.3-7 4.6-7 4.6z" fill="#ef8f6f"/><path d="m187.3 109.1-5.1-20.6-6.2-2s8.5 17.7 11.3 22.6z" fill="#ffbdd8"/><path d="m141.2 110.4 2.1-20.4 5.6-2.4c0 .1-5.3 13.6-7.7 22.8z" fill="#ffbdd8"/><path d="m188.5 148.4c-7 4-22.7 7-32.6 6.1 12.9-1.7 20.5-2.9 32.6-6.1z" fill="#ffbdd8"/><path d="m184 96.1-1.9-7.6-6.2-2s.1.2.2.5c-1.6-.9-3.7-1.5-6.1-1.9l.1-.1s-.6-.1-1.5-.3l-.2-22.6c-.9-.1-1.7-.1-2.6-.1-3.8 0-7.6.7-11.1 1.9l-.3 21.4c-1 .4-1.7.6-1.7.6l.1.3c-.5.2-1.1.4-1.6.6-.9.4-1.8.8-2.6 1.3.1-.3.2-.5.2-.5l-5.6 2.4-.3 3c-2.7 2.1 8.7 12.1 22.1 12.1 8.2 0 20-7 19-9z" fill="#a0513c" opacity=".5"/><path d="m172.3 40.2c-3.8-12.4-11-20.5-15.6-20.1-10.1.8-16.6 19.7-16.1 36.3 0 4.7 5.3 18.1 16.9 22.2 9.4-3 19.5-14.1 19.8-22 .6-7.6-4.4-14.5-5-16.4z" fill="#ffc397"/><path d="m174.5 44.7c.4 1.8.6 3.6.5 5.5 0 9.5-7.2 20.8-17.6 28.4 9.4-3 19.5-14.1 19.8-22 .4-4.5-1.2-8.8-2.7-11.9z" fill="#f7a27c"/><ellipse cx="178.7" cy="52.2" fill="#ffc397" rx="4.1" ry="6.2" transform="matrix(.9272 .3746 -.3746 .9272 32.5677 -63.1525)"/><ellipse cx="179.3" cy="51.9" fill="#ef8f6f" rx="2.7" ry="4.1" transform="matrix(.9271 .3748 -.3748 .9271 32.5336 -63.423)"/><path d="m179.5 55c.6-1.5.3-3-.7-3.3-1-.4-2.2.5-2.8 1.9-.6 1.5-.3 3 .7 3.4.9.4 2.2-.5 2.8-2z" fill="#ffc397"/><path d="m174.6 59.1c.1-6.1.9-12.7 6.7-15.6l-6-10.7s-2.3 5.9-3.1 10.5c-.8 4.7-.5 8.5 2.4 15.8z" fill="#77392f"/><path d="m159.1 65c.5 2-2.8 7.7-5.5 7.5-2-.1-5.2-5.3-5.2-7.3.8-1.2 8.8-1.2 10.7-.2z" fill="#472d1f"/><path d="m157.9 65.3c-3.3-.6-5.6-1-8.5 0 0 0 1.3 4.4 3.7 4.6 4.3.4 4.8-4.6 4.8-4.6z" fill="#fce7de"/><path d="m144.2 48.6c.2-1.6 1.3-2.7 2.4-2.5s1.9 1.6 1.7 3.2-1.3 2.7-2.4 2.5c-1.2-.2-1.9-1.6-1.7-3.2z" fill="#5b371e"/><path d="m141.7 47.9c2.2-1.7 5-3.1 8.8-.4-3.6-.8-6-.3-8.8.4z" fill="#5b371e"/><path d="m164.2 49c-.1-1.6-1.1-2.8-2.3-2.7s-2 1.5-1.9 3.1 1.1 2.8 2.3 2.7c1.1-.2 2-1.5 1.9-3.1z" fill="#5b371e"/><path d="m166.7 48.5c-2.1-1.8-4.8-3.5-8.8-1.1 3.7-.6 6.1.1 8.8 1.1z" fill="#5b371e"/><path d="m168.7 43.6c-.9-1.6-4.1-6.4-11.4-3.6 5.6-.6 8.3.2 11.4 3.6z" fill="#7f4632"/><path d="m140.2 43.6c.9-1.6 4.1-6.4 11.4-3.6-5.6-.6-8.3.2-11.4 3.6z" fill="#7f4632"/><path d="m157.7 59.9c0-1.1-1.6-5.6-3.6-5.6-2.1 0-3.8 4.5-3.8 5.6s1.7 1.9 3.7 1.9 3.7-.8 3.7-1.9z" fill="#f7a27c"/><path d="m155.2 59c.3-1 .6-5.5-.6-5.8s-3.5 3.5-3.8 4.6c-.3 1 .5 2.1 1.7 2.5 1.2.2 2.4-.3 2.7-1.3z" fill="#ffc397"/><path d="m209.3 217.7c-.7.1-1.2-1.3-1.6-3-.3-1.7-.4-3 .4-3.1.7-.1 1.6 1.1 1.9 2.8s0 3.2-.7 3.3z" fill="#ffcd9c"/><path d="m211.6 217.2c-.7.1-1.2-1.3-1.6-3-.3-1.7-.4-3 .4-3.1.7-.1 1.6 1.1 1.9 2.8.4 1.7.1 3.2-.7 3.3z" fill="#ffcd9c"/><path d="m206.6 213.1c-.5-.6.6-1.7 1.9-2.7 1.3-1.1 2.5-1.7 2.9-1.1.5.6-.2 1.9-1.6 3-1.3 1-2.8 1.4-3.2.8z" fill="#ffcd9c"/><path d="m208 205.1c.6-.4 1.6.7 2.6 2.1s1.5 2.6.9 3-1.9-.4-2.9-1.8c-.9-1.3-1.2-2.8-.6-3.3z" fill="#ffcd9c"/><path d="m207.6 218.3c-.7.1-1.2-1.3-1.6-3-.3-1.7-.4-3 .4-3.1.7-.1 1.6 1.1 1.9 2.8.4 1.7.1 3.2-.7 3.3z" fill="#ffcd9c"/><path d="m24.6 252c-.8.3-1.3-1.1-1.7-2.7-.3-1.6-.4-2.9.4-3.2s1.8.8 2.1 2.4c.3 1.7 0 3.3-.8 3.5z" fill="#ef8f6f"/><path d="m22.8 253c-.8.3-1.3-1.1-1.7-2.7-.3-1.6-.4-2.9.4-3.2s1.7.8 2.1 2.4 0 3.2-.8 3.5z" fill="#ef8f6f"/><path d="m28 250.6c.4.8-1.7.9-3.1 1.7-1.5.8-2.6 1.2-3 .4-.3-.8.6-2 2-2.8 1.4-.9 3.7-.1 4.1.7z" fill="#ffc397"/><path d="m24.7 236.8c1.5 2.3 7.7 10.8 5.3 13.1-1.2 1.1-3.6 2.9-5.4.4-1.4-1.9-2.5-7.3-2.4-12.4z" fill="#ffc397"/><path d="m14.7 233.1 3.3 7.2 9.8-2.9-1.4-8.6z" fill="#f9ce8a"/><path d="m29 230.9c0-2.2-10.6-44.1-10.1-47.1 2-10.5-7.5-18.7-11.9-17.2-13.9 4.8-4.3 58.9 4.4 70.5 9.1-1.1 17.6-6.2 17.6-6.2z" fill="#664938"/><path d="m18.3 188.1c1.8-2.1 24.7-63.8 18.1-76.9s-36.6 57.5-36 70.9c7.8 10.4 17.9 6 17.9 6z" fill="#664938"/><path d="m141.9 158.8c-1.6-.7-22.8-18.4-40.5-30.6-10.4-7.2-15.1-18.2-15.7-23.1-1.8-13.9 61.6 29.3 68 43.9-.8 12.1-11.8 9.8-11.8 9.8z" fill="#664938"/><path d="m79.2 100.4-14.7-1.3-11 1-.3 5.1 28-.9z" fill="#543729"/><path d="m72.4 71.4-18.8 1.4 1 32.7 21.5-.2z" fill="#ef8f6f"/><path d="m142.2 146.9c-11.4 1.1-14.2-9.6-32.4-21-20.5-12.9-24.7-24.9-24.1-20.8.6 4.8 5 16.8 15.4 24 17.6 12.2 36.7 26.9 38.3 27.6z" fill="#543729"/><path d="m36.7 266c9.6 3.2 52.4 2.1 70.7-10.6 0 0-13.9-34.6-21.3-34.9-34.5-1.8-49.4 45.5-49.4 45.5z" fill="#3f2b22"/><path d="m54.5 400.2c-2.6-23.6-6.1-27-7.9-49.4-.7-8 3.2-20.3 2.5-28.7-3.2-38.6-8.9-80.4-8.4-102.7.4-14.5 56-22.1 62.9-5.1 3 7.3.1 155.1.8 185.9h-3.6s-6.7-25.6-11.2-50.8c-1.5-8.2 2.1-18 .8-26.7-5.3-34.4-8.6-75.8-15.9-76.5-5.8-.5-11 39.5-13.3 76.5-.6 9.4 1 19.2.8 28.1-.9 27.4-2.9 49.4-2.9 49.4z" fill="#a0513c"/><path d="m93.5 348.7c-1.5-8.2 2.1-18 .8-26.7-5.3-34.4-8.6-75.8-15.9-76.5-.7-.1-2.2.4-2.9 1.5 6.2 6.3 10.2 44 15 75.7 1.3 8.7-2.2 18.5-.8 26.7 4.5 25.2 11.2 50.8 11.2 50.8h3.6c0-.6 0-1.2 0-1.9-1.5-5.2-7-27.6-11-49.6z" fill="#873829"/><path d="m58.3 399.5c-2.6-23.6-6.1-27-7.9-49.4-.7-8 3.3-19.5 2.6-27.9-3.2-38.6-1.5-59.6-1-81.8 8.8-5.2 25.5-12.9 52.8-9.6 2.3-11-64-17.6-64.2-11.2-.5 22.2 5.2 64 8.4 102.7.7 8.4-3.2 20.7-2.5 28.7 1.8 22.3 5.3 25.8 7.9 49.4h4.6s0-.3.1-.8h-.8z" fill="#873829"/><path d="m105 258.6c0-12.3-.1-23-.4-30.8l-14.9-7.4c-1.9 17.7 7 32.1 15.3 38.2z" fill="#a0513c" opacity=".5"/><path d="m65.1 228.3s-16.7 1.7-24.2 2.8c.5 10.9 1.7 24.4 3.1 38.9 9.8-8.6 21.1-24.7 21.1-41.7z" fill="#a0513c" opacity=".5"/><path d="m41.8 235.2c-1.8.8-2.5-1.2-2.2-3.9 2.2-23.3-17.6-98.6-9.7-117.1 3.9-9.3 41.2-18.3 60.3-8.8 10 5 7.6 36.9 10.8 63.1 2.8 22.5 6.9 36.4 5.9 56.9-.1 2.6-.6 5.1-3 4.2-13.9-4.8-43.4-2.6-62.1 5.6z" fill="#f9ce8a"/><path d="m66.3 226.7s13.6-3.1 24.5-1.5l-.3 2.2s-22.4.4-27.4 1.9z" fill="#e0aa5a"/><path d="m101.4 139.1c-21.5-4.2-62.2 4.2-68.4 6.9l2.7 6.1c25-8.1 66.1-6.1 66.1-6.1z" fill="#ffe69f"/><path d="m51.3 103.2 15 6.3 12-7.6-12.2-.7z" fill="#ffe69f"/><path d="m67.7 228.3c-.1-4.5-10-70.3-10-70.3l2.2 71.8z" fill="#e0aa5a"/><path d="m86.8 227.1c4.1-34.8-7.8-125-7.8-125l9.9 2.1 10.8 124z" fill="#e0aa5a"/><path d="m85.6 152.6-.6-50-8.6-.9s6.8 46.8 9.2 50.9z" fill="#e0aa5a"/><path d="m36.7 266c11.6-1.9 26.5-19.9 27.3-38.8.5-12.1-8.3-120.8-11.2-125 0 0-20.3 3.2-24.2 13.6-1.8 4.9-3.4 24.4 1.7 58.3 4.6 30.1 6.4 91.9 6.4 91.9z" fill="#664938"/><path d="m59.2 159-15.8-54.3 8.3-2.6s8 46.8 7.5 56.9z" fill="#543729"/><path d="m53.3 102.2s-.4.1-1.1.2c3.1 8.6 11.5 112.8 11 124.6-.7 18.2-14.6 35.6-26 38.5v.5c11.6-1.9 26.5-19.9 27.3-38.8.5-12.1-8.3-120.8-11.2-125z" fill="#b7856c"/><path d="m29.8 175.1c1.8 12 4.5 39 4.5 39 1.7-9.5 1.6-18.4-.5-38.5-2.1-19.5-4.5-24.6-6.1-33.3-.1 9.7-.6 15.4 2.1 32.8z" fill="#543729"/><path d="m107.4 255.4c-8.9-2.1-13.1-18.3-14.2-25.3-1.6-10.7-.2-33.4-4-68.7-3.3-30.9-6.4-54.4-9.8-59.9 0 0 10.5-1.1 16 8.8 2.5 4.4 5.4 25.1 9.6 59.2 4.4 35.9 2.4 85.9 2.4 85.9z" fill="#664938"/><path d="m107.8 234.3c.9-35.8-1.7-56.8-2.6-65.4-3.7-34-5.4-47.7-7.9-52.2 1.7 16.9 10.5 117.3 10.5 117.6z" fill="#543729"/><path d="m93.9 230.1c-1.6-10.7-.2-33.4-4-68.7-3.3-30.9-6.4-54.4-9.8-59.9h.6c-.8 0-1.3 0-1.3 0 3.4 5.4 6 29.3 9.3 60.2 3.8 35.3 2.8 57.7 4.4 68.4 1.1 7 5.2 23.2 14.2 25.3 0 0 0-.1 0-.2-8.4-2.8-12.4-18.3-13.4-25.1z" fill="#b7856c"/><path d="m88.4 151.3-.6-50-8.6-.9s6.8 46.8 9.2 50.9z" fill="#b7856c"/><path d="m117.8 401.1h-18.4s.7-7.2 4.5-6.2c4.7 1.3 13.9 6.2 13.9 6.2z" fill="#c6b38b"/><path d="m65.3 401.1h-16.4s5.1-7.2 8.8-6.2c4.8 1.3 7.6 6.2 7.6 6.2z" fill="#c6b38b"/><path d="m59.5 154.1-14.7-51.4 8.7-2.6s6.5 43.8 6 54z" fill="#b7856c"/><path d="m66.5 242.7c2.9 1 12.5 2.7 20.9-1.7 0 0-4.4 6.3-11.9 6.5s-9-4.8-9-4.8z" fill="#873829"/><path d="m80.6 228.7-6.4.4-.1 2.9 6.4-.4z" fill="#c65c47"/><path d="m34.2 210.2 13.4-7.5s1.7 6.1.2 7.7c-1.5 1.5-12.7 9.4-13 7.6-.4-2.2-.6-7.8-.6-7.8z" fill="#543729"/><path d="m33.2 209.2 13.9-7.2s1.4 5.9-.2 7.4-13.2 9.1-13.4 7.4c-.3-2.2-.3-7.6-.3-7.6z" fill="#8e634d"/><path d="m107.8 206.7-13-6.3s-1.3 6.3.2 7.7 12.4 8.3 12.6 6.4c.2-2.1.2-7.8.2-7.8z" fill="#543729"/><path d="m108.7 205.6-13.4-6s-1 6.1.6 7.4 12.9 7.9 13 6.2c.1-2.1-.2-7.6-.2-7.6z" fill="#8e634d"/><path d="m54.5 102.8 11.6 4.1 9.6-5.2-9.8-1.6z" fill="#ef8f6f"/><path d="m28.3 137.1-.3-20.9-1.4 1.5s1.1 17.9 1.7 19.4z" fill="#8e634d"/><path d="m38.4 150.9 12.7-4.5.6 3.9-13.2 2.7z" fill="#8e634d"/><path d="m211.3 211.5c.6-.4 1.6.7 2.5 2.1s1.5 2.5.9 2.9-1.9-.4-2.8-1.7c-1-1.5-1.2-2.9-.6-3.3z" fill="#ffcd9c"/><path d="m91 102.9c-1.1-.3-2.2-.5-3.2-.7 0-.2 0-.4-.1-.8-2.8-.6-8.5-.9-8.5-.9l-3.7-.3-2.4-22.2c-3.4-2.5-6.9-4.6-10.5-5.7l-9 .7.8 27.2-.9.1-8.7 2.6.4 1.4c-3.9 1.2-8.5 3.1-12 5.8 12.2 8.5 51.1 2.3 57.8-7.2z" fill="#a0513c" opacity=".5"/><path d="m45.6 41.1c-2.3-1.5-12-6.2-14.4-16.3 0 0-2.3 12.1 15.4 19.6z" fill="#915329"/><path d="m45 39.4c-2-1.9-10.8-8.2-11.4-18.5 0 0-4.3 11.5 11.8 22z" fill="#915329"/><path d="m36.5 20.8c3.3-8.6 25.6-10.4 37.6-7.7 24.1 5.4 12.8 17.5 12.8 17.5 6.4 5.3 7 13.1 4.8 21.1-3.5 12.9-15.7 23.1-19.1 27l-23.5-33.2c-4.8-1.5-16-16-12.6-24.7z" fill="#915329"/><path d="m54.5 26.7c13.9-2.3 27.1 2.9 34.9-4.1 1 4.2-2.4 7.9-2.4 7.9 6.4 5.3 7 13.1 4.8 21.1-3.5 12.9-15.7 23.1-19.1 27l-23.6-33.1c-1.9-.6-4.9-3.3-7.6-6.9 4.6 0 8.1-11.1 13-11.9z" fill="#7c3f21"/><path d="m44.2 33.8c-2.1 2.8-10.3 19.2-5.8 22.2 2.9 1.9-.7 12 1.1 17.9 2.4 7.8 6.9 19.6 10.7 22.9 20.8-5.4 24.5-25.5 22.2-32.3s7.3-23.4 2-30.2c-8.5-10.6-22.9-10.4-30.2-.5z" fill="#ffc397"/><path d="m36 53.3c5.6-.3 8.4-4.4 9.6 4.8 1 7.7 8.1 21.9-2.3 26.3-2.6-5.7-5.5-12.3-4-26.4.2-2.5-2.9-3-3.3-4.7z" fill="#f7a27c"/><path d="m40.9 61c-.4-1.8.1-3.5 1.2-3.6 1.1-.2 2.2 1.2 2.7 3.1.4 1.8-.1 3.5-1.2 3.6-1.2.1-2.3-1.2-2.7-3.1z" fill="#543c32"/><path d="m45.5 53.4c.7 7.6-4.1 25.4-3 26.4 1.2 1.1 10.7-2.8 10.7-2.8s-8-26.8-7.7-23.6z" fill="#ffc397"/><path d="m41.7 53.1c1.1-.2 1.1-3-.6-3.3-1.6-.3-6 1.5-6.2 2.2-.1.4-.6 2.1 1.1 2.7 1.1.3 1.9-1.1 5.7-1.6z" fill="#915329"/><path d="m56.4 63c-2.2 1.4-9.4-8.3-8.8-10.4.6-2 7.2-.5 8.3.8 1.2 1.2 2.8 8.1.5 9.6z" fill="#f7a27c"/><path d="m49 52.6c-1.6 0-3.3-3.4-1.1-3.9 2.1-.6 9.2.9 9.9 1.7.4.5 2 2.4 0 3.3-1.2.5-3.1-1-8.8-1.1z" fill="#915329"/><path d="m58.7 76.8-.9-.1c-.2 5.8-8.1 8.3-14.1 7.5v.4c4.7.8 14.7.5 15-7.8z" fill="#c46951"/><path d="m55.1 85.3s-2.8 1.8-7.1 1.5c3.3 1.6 5.5.9 7.1-1.5z" fill="#ef8f6f"/><path d="m61.2 77.1s-2.4.4-5.2-1c1.8 2.1 3.5 2.2 5.2 1z" fill="#c46951"/><path d="m54.5 59.5c-.4-1.8.1-3.5 1.2-3.6 1.1-.2 2.2 1.2 2.7 3.1.4 1.8-.1 3.5-1.2 3.6s-2.3-1.2-2.7-3.1z" fill="#543c32"/><path d="m67.6 65.6c.1-6.4 5-26.1 2.7-35.1 1.4 1.1 2.8 2.4 4 3.9 5.3 6.8-4.3 23.4-2 30.2s-1.4 26.9-22.1 32.3c-.1-.1-.3-.3-.4-.4 17-7 17.8-22.5 17.8-30.9z" fill="#f7a27c"/><path d="m71.1 70.4-3.8-.1s-.9-39.9 8-39.4 3.2 18 3.2 18z" fill="#7c3f21"/><path d="m69.9 71.3c-.3-2.8 3.4-10.1 6.1-12.3 3-2.5 6.1-2.1 7.6.2 1.8 2.9-3.2 9.9-7.3 11.8-2.4 1-6.1 3.6-6.4.3z" fill="#ffc397"/><path d="m72.3 69.3c-.2-1.7 2-6.1 3.7-7.5 1.8-1.5 3.7-1.3 4.6.2 1.1 1.7-1.9 6-4.4 7.1-1.4.6-3.7 2.2-3.9.2z" fill="#ef8f6f"/><path d="m71.2 70.8c-.2-1.1.8-3.6 1.7-4.2 1-.8 2.2-.5 2.8.5.8 1.2-.7 3.5-2.2 4-.7.2-2 1-2.3-.3z" fill="#ffc397"/><path d="m73.2 31c1.7 1.5 2 5.5 1.8 7.6 0 0 7.7-6.7 14.5-3.2 0 0-3.8-7.2-16.3-4.4z" fill="#915329"/><path d="m26.3 162.1c-5 12.6-9.7 22.9-11.8 27.8 1.4 9 8.5 37.2 9.6 43.4 2.9-1.3 4.8-2.4 4.8-2.4 0-1.9-7.4-34.7-9-44.5 2.2-5.2 5.3-13.6 8.6-26.3 1-3.5-.5-2.3-2.2 2z" fill="#543729"/><path d="m104.7 207.1c.6.6 1.7-.4 2.8-1.7s1.7-2.4 1.1-3.1c-.6-.6-2 0-3 1.3-1.2 1.3-1.5 2.9-.9 3.5z" fill="#ef8f6f"/><path d="m105.9 208.7c.6.6 1.7-.4 2.8-1.7s1.7-2.4 1.1-3.1c-.6-.6-2 0-3 1.3-1.2 1.3-1.5 2.9-.9 3.5z" fill="#ef8f6f"/><path d="m102.2 204.3c-.7.5 1.1 1.5 2.2 2.9 1 1.3 1.9 2.2 2.6 1.7s.4-2.1-.6-3.4c-1.1-1.5-3.6-1.8-4.2-1.2z" fill="#ffc397"/><path d="m111.5 193.3c-2.4 1.4-12.1 6.3-10.8 9.4.6 1.5 2 4.2 4.8 2.8 2.2-1.1 5.6-5.4 7.9-10z" fill="#ffc397"/><path d="m109.3 196.9 1.2-1.2 2.1 1.9-.9 1.8z" fill="#756150"/><path d="m107 197c-.5-.9-.1-2.2 1-2.9s2.3-.5 2.9.4c.5.9.1 2.2-1 2.9s-2.4.5-2.9-.4z" fill="#473a2e"/><path d="m107.4 196.7c-.4-.7-.1-1.8.8-2.3.9-.6 1.9-.4 2.3.3s.1 1.8-.8 2.3c-.9.6-1.9.4-2.3-.3z" fill="#756150"/><path d="m107.6 196.7c-.4-.7 0-1.6.7-2.2.8-.5 1.7-.4 2.1.3s0 1.6-.7 2.1c-.7.6-1.7.5-2.1-.2z" fill="#ad937f"/><path d="m108.7 195.9c-.1-.1 0-.3.1-.4s.3-.1.4.1c.1.1 0 .3-.1.4-.2 0-.3 0-.4-.1z" fill="#473a2e"/><path d="m113.3 185.2-5.1 6.2 6.9 7.5 7.2-5z" fill="#f9ce8a"/><path d="m108.3 186c1-1.8 24.2-27.4 26.6-30.9 5.7-8.3 14.5-11.9 17.2-8.5 8.8 10.8-21 45-30.6 53.4-7.3-5.5-13.2-14-13.2-14z" fill="#664938"/><path d="m134.9 158c2.5-3.9 4.5-7.3 6.4-9.9-2.4 1.6-4.7 3.8-6.7 6.7-2.4 3.5-26.2 28.9-27.2 30.7 0 0 1.3 1.6 3.4 3.9 2.5-3.7 21.9-28 24.1-31.4z" fill="#543729"/><ellipse cx="121.3" cy="188.7" fill="#543729" rx="2" ry="2.1" transform="matrix(.9828 -.1847 .1847 .9828 -32.7618 25.6506)"/><path d="m122.7 187.6c-.2-.9-1-1.5-1.9-1.3s-1.4 1-1.2 1.9 1 1.5 1.9 1.3c.8-.1 1.4-1 1.2-1.9z" fill="#b7856c"/><path d="m16.3 228.8s-1.5-7.5-4.6-11.1c0 0 4.8 3.1 6.4 5.5 1.7 2.4-1.8 5.6-1.8 5.6z" fill="#6b3815"/><path d="m110.1 135.4c-8 5.6 4 13.5 21.7 31.7 5.3 5.5 13.6 11.7 4.9-.9-14.9-21.9-24.7-32.1-26.6-30.8z" fill="#ffc397"/><path d="m165.1 178.4c-.8.5-1.9-.7-2.9-2.2s-1.6-2.8-.8-3.3 2.2.3 3.3 1.8c1 1.5 1.2 3.2.4 3.7z" fill="#ef8f6f"/><path d="m163.6 179.9c-.8.5-1.9-.7-2.9-2.2s-1.6-2.8-.8-3.3 2.2.3 3.3 1.8c.9 1.5 1.1 3.1.4 3.7z" fill="#ef8f6f"/><path d="m168.3 176c.7.7-1.5 1.4-2.7 2.6-1.3 1.2-2.4 1.9-3.1 1.3-.7-.7-.2-2.2 1-3.4 1.3-1.3 4.1-1.2 4.8-.5z" fill="#ffc397"/><path d="m159.1 163.2c2.5 1.8 12.7 8.4 11 11.4-.9 1.5-2.7 4-5.7 2.1-2.3-1.5-5.7-6.4-7.6-11.5z" fill="#ffc397"/><path d="m218.8 288.4c-7.5 6.5 15 35.8 15 35.8l4.7-5.3s-13.6-35.8-19.7-30.5z" fill="#db5842"/><path d="m236 321.8-2.1 2.4s-22.2-29-15.1-35.6c-1 7.5 15.5 31.4 17.2 33.2z" fill="#bc3f2f"/><g fill="#ffc397"><path d="m237.3 326.6c.8-.3 3.9-.4 3.6-1.8s-4.7-4.3-5.5-4-.5 2.4-.1 3.8c.3 1.4 1.2 2.3 2 2z"/><path d="m236.7 328c.2.6 1.5.4 2.7-.5s2.1-2 1.8-2.6c-.2-.6-1.4-.4-2.7.5-1.2.8-2 2-1.8 2.6z"/><path d="m238.1 331.7c1.9.2 5-5.8 3.2-6-.8-.1-3.6 2.9-4 3.9s0 2 .8 2.1z"/><path d="m236.1 331.2c.8.1 1.7-.7 2-1.7.3-1.1 0-2-.8-2.1s-1.7.7-2 1.7 0 2 .8 2.1z"/><path d="m234.4 330.2c.8.1 1.7-.7 2-1.7.3-1.1 0-2-.8-2.1s-1.7.7-2 1.7c-.3 1.1 0 2 .8 2.1z"/><path d="m237.8 330c2.1-.5 4.1-1.8 4-3.7-.2-1.8-2.5-3.5-4.5-3-2.1.5-3.3 2.2-3.1 4 .1 1.8 1.5 3.2 3.6 2.7z"/></g><path d="m240.8 321.1-3.5-6.6s-9.4 4.4-6.9 8.3c2.6 4 10.4-1.7 10.4-1.7z" fill="#ffc7c0"/><path d="m282.6 345c.6 0 1.3-.3 1.8-.9.7-.8 2-3.1 0-7.9l-1.3.6c1.7 4.1.6 5.9.2 6.3-.3.4-.7.5-.8.4l-.4 1.4c.2.1.4.1.5.1z" fill="#41596d"/><path d="m256.9 240.4 14.7 1.1.6 27.3-15.5.4z" fill="#ef8f6f"/><path d="m279 399.6h-3.7s-3.2-51.8-15.5-53.3c-12.2-1.5-16.8 54-16.8 54h-4.5s-.3-90.2 3.7-102.6c4.1-12.4 37.5-11.3 41.5 5.6 2.3 10.3-4.7 96.3-4.7 96.3z" fill="#617a93"/><path d="m257.2 346.4c.3 0 .6.1.9.2-10.9 3.7-15.1 53.8-15.1 53.8h-2.6c-.1 0 4.5-55.5 16.8-54z" fill="#41596d"/><path d="m277.5 343.6c-8.3-3.2-21.6-8.1-38-17-.2-4.7-.7-8.5 3.8-11.5 13.4-9 38.6-19.1 40.3-11.7 2.4 10.1-4.6 96.2-4.6 96.2h-2.6s3.5-45.9 1.1-56z" fill="#41596d"/><path d="m284.2 337.4c-1.2 3.3-42-9.1-45.1-13.5-3-4.4 5.5-63.6 10.2-64.6s29.9-1.3 32.3 3.7c2.4 5.1 8 59.5 2.6 74.4z" fill="#db5842"/><path d="m249.2 263.9-10.6 57.4c-.9-12.5 6.5-61 10.8-61.9 4.7-1 29.9-1.3 32.3 3.7 2.2 4.8 7.4 54.3 3.3 71.9-2.8-4.2 1.1-44.2-6.8-63.6-5.4-13-23.2-9.5-29-7.5z" fill="#bc3f2f"/><path d="m219.9 293.3c4.5 3.7 37.9-21.6 29.9-33.9 0 0-27.8 19.6-31.3 29.5-.6 1.8.4 3.4 1.4 4.4z" fill="#db5842"/><path d="m250.9 268.1-2.1 5.1s-11.9 13.5-21.3 18.7c-.8.4-4.6 1.5-3.2.4 6.6-4.9 25.6-22.7 26.6-24.2z" fill="#bc3f2f"/><path d="m312.5 293.7c-4.5 4.4-50.4-19.8-32.2-32.2-.1 0 38 26.5 32.2 32.2z" fill="#db5842"/><path d="m278 271 2.7 7.9s24.3 21.5 31.5 15c-7.2-.1-32.7-21-34.2-22.9z" fill="#bc3f2f"/><path d="m261.3 278 8.5 15.5-7.1 2.2 8 21.4-16.6-23.5 9.7-2.3-9.7-13.5z" fill="#fff6dc"/><path d="m254.9 260.6c0-1.3 3.9-.9 9.5-.9 5.7 0 10.9-.4 10.9.9s-4.6 2.3-10.2 2.3-10.2-1-10.2-2.3z" fill="#bc3f2f"/><path d="m284.2 337.3v.1c-1.2 3.3-42-9.1-45.1-13.5 11.5 3.6 33.2 10.4 45.1 13.4z" fill="#bc3f2f"/><path d="m254.1 258.9c0-1.6 4.9-.3 10.8-.4 5.9 0 10.7-1.3 10.7.3s-4.8 2.8-10.7 2.9c-6 0-10.8-1.2-10.8-2.8z" fill="#ffc7c0"/><path d="m248.2 260.5c1.2-2.1 2.6-1.5 5.9-1.7.1-.6 1.1-.8 2.7-.7l.1-15.1c3.4-.4 7.1-.5 10.9-.1 1.3.1 2.6.3 3.8.5l.4 14.8c2.2-.2 3.5-.1 3.6.7 0 .4-.3.7-.8 1.1 3.6.7 5.3 1.1 6.4 2.6-.7 12.5-31.9 9.7-33-2.1z" fill="#a0513c" opacity=".5"/><path d="m283.4 252.7c11.7-4.7 33.2-24.3 18.6-50.8-14.7-26.6-13.7-8.3-33.1-19.3-22.8-12.8-22.2 38.2-22.2 38.2s16.7 39.9 36.7 31.9z" fill="#a0513c"/><path d="m267.7 193c13.2 14.9 24.1 6.6 26.9-2.5 2 2.3 4.3 5.9 7.4 11.3 14.7 26.6-6.8 46.1-18.6 50.8-20 8-36.7-31.9-36.7-31.9s-.1-6.2.8-13.7c5.7 2.5 12.6-12.9 20.2-14z" fill="#893d2e"/><path d="m243.2 227.5c2-12.3 21.6-29.8 24.6-34.3 1 8.6 22.1 32.3 20.1 44.6s-16.3 17.8-27.7 15.8c-11.4-2.2-19-13.8-17-26.1z" fill="#ffc397"/><path d="m257.9 251.1c11.4 2.1 22.8-1.9 24.8-14.2 1.8-10.8-11.3-31.9-16-42.3.5-.5.8-1 1.1-1.4 1 8.6 22.1 32.3 20.1 44.6s-16.3 17.8-27.7 15.8c-5-.9-9.3-3.7-12.3-7.5 2.7 2.4 6.2 4.3 10 5z" fill="#f7a27c"/><path d="m289.3 233.7c2.5-1.6 5.7-1.2 7.2.9s.8 5-1.7 6.6-5.7 1.1-7.2-.9c-1.5-2.1-.7-5 1.7-6.6z" fill="#ffc397"/><path d="m289.8 235.1c1.7-1.1 3.9-.8 4.9.6s.5 3.5-1.2 4.5c-1.7 1.1-3.9.8-4.9-.6-1.1-1.4-.5-3.4 1.2-4.5z" fill="#ef8f6f"/><path d="m289 236.7c1-.6 2.2-.5 2.8.4.6.8.3 2-.7 2.6s-2.2.5-2.8-.4c-.6-.8-.3-1.9.7-2.6z" fill="#ffc397"/><path d="m283.6 240.4c.1-2.2 2.3-19.8-4.4-30.5 0 0 9.9 11.1 10.9 22.5.2 2.4-6.5 8-6.5 8z" fill="#893d2e"/><path d="m277.1 230.5c-.1-4.8-.9-7.4-3.7-8.5-5.6-2.2-10.4 8.5-2.9 11.4 2.8 1 6.7 1.1 6.6-2.9z" fill="#d8652b"/><path d="m276.7 230.6c-.1-4.8-.9-7.4-3.7-8.5-5.6-2.2-10.4 8.5-2.9 11.4 2.8 1.1 6.7 1.2 6.6-2.9z" fill="#fff9e9"/><path d="m275 229.9c.5-1.9-.4-4-1.8-4.5-1.5-.6-3.1.5-3.5 2.4-.5 1.9.4 4 1.8 4.5 1.4.6 3-.5 3.5-2.4z" fill="#79abc6"/><path d="m274.5 228.2c.1-.5-.1-1.1-.5-1.2-.4-.2-.8.1-1 .7-.1.5.1 1.1.5 1.2.5.1.9-.2 1-.7z" fill="#9acce2"/><path d="m258.6 225.1c.8-3.5.2-6.4-2.8-7-7.1-1.3-9.6 9.7-3.7 10.8 2.9.5 5.6 0 6.5-3.8z" fill="#d8652b"/><path d="m258.2 225.3c.8-3.5.2-6.5-2.8-7-7.1-1.3-9.6 9.7-3.7 10.8 2.9.5 5.6 0 6.5-3.8z" fill="#fff9e9"/><path d="m257.6 226.2c.4-2-.6-3.9-2.1-4.4s-3 .8-3.4 2.7c-.4 2 .6 3.9 2.1 4.4 1.5.4 3-.8 3.4-2.7z" fill="#79abc6"/><path d="m245.2 229.9c0 1.8 3.7 3.6 8.4 4s8.5-.7 8.5-2.5-3.7-3.6-8.4-4c-4.6-.4-8.4.7-8.5 2.5z" fill="#fabe82"/><path d="m265.9 235.1c.3-1.1-1.1-2.8-3.3-3.8-2.1-1-4.1-.9-4.5.2-.3 1.1 1.1 2.8 3.3 3.8 2.1 1 4.1.9 4.5-.2z" fill="#efa460"/><path d="m260 231.6c-.5 1 .8 3 2.8 4.3s4 1.6 4.5.6-.8-3-2.8-4.3c-2-1.4-4-1.6-4.5-.6z" fill="#fabe82"/><path d="m264 231.7c-.2 1.8 3.5 3.9 8.1 4.7s8.5 0 8.7-1.8-3.5-3.9-8.1-4.7c-4.7-.8-8.6 0-8.7 1.8z" fill="#fabe82"/><path d="m256.5 224c.1-.5-.2-1.1-.6-1.2s-.8.2-.9.7.2 1.1.6 1.2.8-.2.9-.7z" fill="#9acce2"/><path d="m277.1 230.5c-.1-4.8-.9-7.4-3.7-8.5-5.6-2.2-10.4 8.5-2.9 11.4 2.8 1 6.7 1.1 6.6-2.9z" fill="#d8652b"/><path d="m276.7 230.6c-.1-4.8-.9-7.4-3.7-8.5-5.6-2.2-10.4 8.5-2.9 11.4 2.8 1.1 6.7 1.2 6.6-2.9z" fill="#fff9e9"/><path d="m275 229.9c.5-1.9-.4-4-1.8-4.5-1.5-.6-3.1.5-3.5 2.4-.5 1.9.4 4 1.8 4.5 1.4.6 3-.5 3.5-2.4z" fill="#79abc6"/><path d="m274.5 228.2c.1-.5-.1-1.1-.5-1.2-.4-.2-.8.1-1 .7-.1.5.1 1.1.5 1.2.5.1.9-.2 1-.7z" fill="#9acce2"/><path d="m258.6 225.1c.8-3.5.2-6.4-2.8-7-7.1-1.3-9.6 9.7-3.7 10.8 2.9.5 5.6 0 6.5-3.8z" fill="#d8652b"/><path d="m258.2 225.3c.8-3.5.2-6.5-2.8-7-7.1-1.3-9.6 9.7-3.7 10.8 2.9.5 5.6 0 6.5-3.8z" fill="#fff9e9"/><path d="m257.6 226.2c.4-2-.6-3.9-2.1-4.4s-3 .8-3.4 2.7c-.4 2 .6 3.9 2.1 4.4 1.5.4 3-.8 3.4-2.7z" fill="#79abc6"/><path d="m245.2 229.9c0 1.8 3.7 3.6 8.4 4s8.5-.7 8.5-2.5-3.7-3.6-8.4-4c-4.6-.4-8.4.7-8.5 2.5z" fill="#ffc397"/><path d="m265.9 235.1c.3-1.1-1.1-2.8-3.3-3.8-2.1-1-4.1-.9-4.5.2-.3 1.1 1.1 2.8 3.3 3.8 2.1 1 4.1.9 4.5-.2z" fill="#f7a27c"/><path d="m260 231.6c-.5 1 .8 3 2.8 4.3s4 1.6 4.5.6-.8-3-2.8-4.3c-2-1.4-4-1.6-4.5-.6z" fill="#ffc397"/><path d="m264 231.7c-.2 1.8 3.5 3.9 8.1 4.7s8.5 0 8.7-1.8-3.5-3.9-8.1-4.7c-4.7-.8-8.6 0-8.7 1.8z" fill="#ffc397"/><path d="m256.5 224c.1-.5-.2-1.1-.6-1.2s-.8.2-.9.7.2 1.1.6 1.2.8-.2.9-.7z" fill="#9acce2"/><path d="m266.9 212.8c3.7.5 7.5 1.6 11.6 3.6l-.4 3c-4-1.9-7.6-3.1-11.1-3.8z" fill="#a0513c"/><path d="m258.7 214.4c-2.6-.1-5.3.4-8.5 1.4l-.1-1.6c3.1-1.2 5.8-2 8.4-2.2z" fill="#a0513c"/><path d="m255.4 238.7c.6-1 11 .2 11.9 1.6 1 1.4-3.3 6.1-5.8 5.9-2.5-.3-7.3-5.7-6.1-7.5z" fill="#542c23"/><path d="m265.8 242.7c.6-.9 1-1.7.7-2.2-.8-1.2-9.7-2.2-10.3-1.3-.3.5-.1 1.4.4 2.3 1.8-.4 7.5.3 9.2 1.2z" fill="#fff0ee"/><path d="m244.5 398.5.6-7.1-8.1-2.4-.1 8.6z" fill="#8caec4"/><path d="m280.7 397.5.1-6.5-8.2-1 .6 9.1z" fill="#8caec4"/><path d="m271.6 401.1h12.3s-3.5-6.2-6.3-5.2c-3.6 1.2-6 5.2-6 5.2z" fill="#f4e0b8"/><path d="m229.9 401.1h16s-2.1-6-4.8-5c-3.6 1.2-11.2 5-11.2 5z" fill="#f4e0b8"/><path d="m280 337.4c3.4-.2 4.2-4 4.2-6.9 0 0 2 1.2.2 6.6-.6 1.7-4.4.3-4.4.3z" fill="#bc3f2f"/><path d="m265.6 346.1c-1.7.3-12.1.1-15.3-2 0 0 3.8 3.9 9 3.7 5.1-.2 6.3-1.7 6.3-1.7z" fill="#41596d"/><path d="m261.9 334.6-.3 2.3-4.2-.8.1-2.5z" fill="#a3bdd3"/><path d="m310.9 288.6c-8.5-5.3-23.8 33.5-23.8 33.5l5.4 4.7c.1 0 28.8-31.7 18.4-38.2z" fill="#db5842"/><path d="m311.2 288.4c10.3 6.5-18.6 38.4-18.6 38.4l-2.1-1.9c18.7-16.5 20.6-33.3 20.7-36.5z" fill="#bc3f2f"/><path d="m288.1 328.7c-.5-.9-3.9-2.6-3.2-3.9 2.2-3.8 6.4-5.3 6.9-4.5.5.9-1.1 4-.9 7.9.1 1.6-2.3 1.4-2.8.5z" fill="#ffc397"/><path d="m287.8 330.5c-.5.4-1.4-.7-1.9-2.4-.5-1.8-.5-3.5 0-3.9s1.4.7 1.9 2.5c.5 1.7.5 3.4 0 3.8z" fill="#ffc397"/><path d="m284.6 333.1c-1.6-1.1-.7-9.2.9-8.1.7.5 1.2 5.4.9 6.7-.3 1.2-1.1 1.9-1.8 1.4z" fill="#ffc397"/><path d="m286.5 334.1c-.7-.5-1-1.9-.6-3.2.3-1.3 1.1-1.9 1.8-1.5.7.5 1 1.9.6 3.2-.3 1.3-1.2 2-1.8 1.5z" fill="#ffc397"/><path d="m288.4 334.4c-.7-.5-1-1.9-.6-3.2.3-1.3 1.1-1.9 1.8-1.5.7.5 1 1.9.6 3.2-.3 1.3-1.1 2-1.8 1.5z" fill="#ffc397"/><path d="m285.8 331.7c-1.4-2-2.3-4.8-1.1-6.5s4-1.6 5.3.4c1.4 2 1.4 4.5.2 6.2-1.1 1.6-3 1.9-4.4-.1z" fill="#ffc397"/><path d="m289.7 314.4-4.3 7.7s9.1 8.3 11.4 3.2c2.2-5.1-7.1-10.9-7.1-10.9z" fill="#ffc7c0"/></svg>