<svg enable-background="new 0 0 496.3 404" viewBox="0 0 496.3 404" xmlns="http://www.w3.org/2000/svg"><path d="m92.3 212.1c-3.5-4.3 27.7-34.4 32.7-37.5-.6 8.4-22.3 50.3-32.7 37.5z" fill="#ffc397"/><path d="m105.4 193.1c.9 2.4 1.8 6.7.4 8.8-1.3 2-4.3 5.2-7.5 3.8-.9-.4-1.6-1.1-2.1-2.1-3.1 4.1-4.8 7.3-3.9 8.5 10.4 12.9 32.1-29.1 32.7-37.5-2.1 1.3-12.7 10.6-19.6 18.5z" fill="#ef8f6f"/><path d="m415.9 270.2c-.4-2.6-23.5-3.2-26.9-2.6 4.5 3.1 28 9.9 26.9 2.6z" fill="#ffc397"/><path d="m356 226.8c1.4-1.4 5.5.3 5.6-1.3.1-1.3-3.9-1.4-6-1.8-3.8-.8-3.7-12.8-10.2-4-.8 1 3 5 1.9 9.5-.2.8-.6 1.9-.9 3.1-.6 2.1-.1 4.4.9 4.4.9 0 .5-1.7.9-3.2.3-1.3.4-1.8.8-1.7.3 0 .2 1.7.2 3.6 0 2.4.5 4 1.5 4s.5-1.6.7-3.8c.2-1.9.2-2.7 1.2-2.8.5 0 .5 1.2 1 3.2.6 2.2 1.6 3.5 2.4 3.3 1.2-.3 0-1.2-.3-3.8-.2-1.5-.4-2.9-.6-4.2.9 1.1 1.7 2.2 2.3 2.8 1.5 1.8 3 2.4 3.6 1.8.9-.8-.5-1.1-2-3.3-.8-1.7-2.2-4.3-3-5.8z" fill="#fbc297"/><path d="m353.1 212.9 1.5 8.1-10 3.3-4-8z" fill="#f8cd89"/><path d="m339.7 219.6c-1.3-1.8-11.8-39.4-12.4-42.4-2.1-10.8 11.3-25.2 13.4-20.9 8 16.4 13.6 41.1 17.4 58.2-8.2 4.3-18.4 5.1-18.4 5.1z" fill="#dcdedb"/><path d="m328 181.6c-1.8-2.1-25.4-65.8-18.6-79.3s37.7 59.3 37.1 73.1c-8.1 10.7-18.5 6.2-18.5 6.2z" fill="#dcdedb"/><path d="m319.8 154.8c5.1 13 10 23.6 12.2 28.7 2.5 12.5 10.6 29.4 13.3 35.3-3.2.6-5.5.8-5.5.8-2.4-8.6-10.6-28.2-13.5-39.7-2.3-5.3-5.5-14-8.9-27.1-1-3.7.6-2.4 2.4 2z" fill="#c9cbc8"/><ellipse cx="248.1" cy="401.4" fill="#bdb6b1" rx="248.1" ry="2.6"/><path d="m317.7 128.9.3-21.5 1.4 1.5c.1.1-1.1 18.5-1.7 20z" fill="#fff"/><path d="m326.4 152.6c-11.5-25.7-21.2-65 9.9-84.8 29.5-18.8 54.8-2.1 61.2 24.3 6.3 26.3-9.6 55.4-19.9 62.9-12.7 9.2-45.8 9.8-51.2-2.4z" fill="#a88982"/><path d="m395.6 107.9c-12.6 9.2-26.2-8.1-37.6-19.9-8-8.3-26.5-2.9-27.6-15.7-23.8 20.8-14.6 56.5-4 80.4 5.4 12.2 38.5 11.6 51.1 2.4 8.6-6.3 21.2-27.8 21.3-50-1 1-2.1 2-3.2 2.8z" fill="#916c66"/><path d="m343 153.3c-1.1-2.7-7.4-21.8-5.8-39.8 0 0-2.2 14 .7 25.7 3 11.6 5.1 14.1 5.1 14.1z" fill="#6d4844"/><path d="m371.5 156.1c5.6-6.5 9.8-17.2 11-29.5.4-4.4.4-8.7 0-12.6-7.1-1.2-14.3-10.2-20.6-16.8-1.5-1.5-3.4-2.4-5.4-2.9-6.5 6.1-11.5 17.8-12.8 31.4-1.5 16 2.7 29.8 10 34.8 6-.2 12.6-1.8 17.8-4.4z" fill="#6d4844"/><path d="m367.5 148.5c-14.8 11.6 35.7 53.6 63.7 89.2l2.6-1.2s-9.5-9-27.8-36.8c-20.9-31.8-34.3-54.6-38.5-51.2z" fill="#ffc397"/><path d="m410.7 206.7c-1.5-2.2-3.1-4.6-4.8-7.1-20.8-31.7-34.2-54.4-38.5-51.1-11.2 8.8 15.4 35.3 40.4 62.4.8-2.1 1.2-2.9 2.9-4.2z" fill="#ef8f6f"/><path d="m401.3 208.5 8.3-10.7s-32.1-61.8-39.4-52.1c-12.5 16.4 31.1 62.8 31.1 62.8z" fill="#ffe655"/><path d="m372 144.9c.1-.1.2-.2.3-.3-.8 0-1.6.3-2.1 1-12.4 16.4 30.6 63.4 30.6 63.4l3.5-4c-5.5-6-43.8-44.9-32.3-60.1z" fill="#f7cd4b"/><path d="m385.3 251.7c0-2.6-11.6 1.6-22.3 6.1 0-1.5 0-3 .1-4.4.1-4.8-19.3-4.3-19.3-4.3s-.7 53.3 2.4 64.1c5.3 18.5 11.1 72.9 11.1 83.1l3.8-2.3c-.4-15.7.5-62.7 1.3-102.9 6.4 10.6 12.2 21.6 12.2 26.6 0 11.2 7.1 64.6 10.3 81.5l3.7-2.5c-5.2-31.9-2.1-71.9-3.3-145z" fill="#ffc397"/><path d="m354.8 366.6c2-.7 4.2-1.2 6.4-1.7.2-21.1.8-48.7 1.2-73.7 6.4 10.6 12.2 21.6 12.2 26.6 0 6.4 2.3 26.5 4.9 45.8 2.2.1 4.3.3 6.3.6-.9-27.2.4-61.9-.5-112.4 0-2.6-11.6 1.6-22.3 6.1 0-1.5 0-3 .1-4.4.1-4.8-19.3-4.3-19.3-4.3s-.7 53.3 2.4 64.1 6.4 33.9 8.6 53.3z" fill="#ef8f6f"/><path d="m355.7 143.9c9.7 12.7-60.6 56.8-86.7 72.7l-3-3.8s24.9-18.8 45.2-35.8c23-19.3 41.7-36.8 44.5-33.1z" fill="#ffcd9c"/><path d="m292.9 185.7 14.1 6.3s61.1-41.8 49.1-46.9c-20.4-8.8-63.2 40.6-63.2 40.6z" fill="#f7cd4b"/><path d="m357.7 125.4h11.5v20.6h-11.5z" fill="#ef8f6f"/><path d="m382.8 212c-6-26.3 4.4-28.5 6.2-35.4 1.3-4.8-4-19.4-10.8-27-3.9-4.3-7.3-2.1-12.5-3.3-4.1-.9-9-3.7-13.7-2.8-20.2 3.7-15.3 14.2-10.8 60.4 1.9 19.8-4.1 102.6-5.7 142.4 25 9.8 48 6.8 69.7-.2-1.8-43.5-12.8-92.2-22.4-134.1z" fill="#d3cc4f"/><path d="m359 158.5 7.9-10.2-13.6-5z" fill="#b5ac3a"/><path d="m372.8 156 .6-9.9-9.3 2.4z" fill="#b5ac3a"/><path d="m354.9 351.6c-3.2-.9-6.4-1.9-9.6-3.2 1.6-39.7 2-114.3.1-134.1-4.5-46.3-7.6-45.9-8.2-51.2.2 8.9 2.1 21.9 4 41 1.9 19.8-4.1 102.6-5.7 142.4 6.5 2.4 13 4.1 19.4 5.1z" fill="#b5ac3a"/><path d="m343.7 264.1c6.3-8.2 24-26.7 21-51.9-1.1-8.8-10.1-62.8-12.4-68.7-.7.1-1.6.4-2.7.5-6.4 7.9-10 30.4-10 30.4z" fill="#b5ac3a"/><path d="m392.1 254.7c-6.3-3.6-19.1-12.8-19.2-33.1-.2-8.6 1.4-55.7.7-74.9.6.3 7.5 4.9 8.5 5.2 6.5 7.1-3 33.6-3 33.6z" fill="#b5ac3a"/><path d="m359.4 156.6 8.4-10.1-10.3-6.9-4.5 3z" fill="#fff78f"/><path d="m345.8 401.1h15.6s1.3-9.4-2.9-7.5c-4.5 2-12.7 7.5-12.7 7.5z" fill="#ddc99e"/><path d="m384.5 401.1h18.1s-12.8-8.4-15.2-6.3c-2.8 2.2-2.9 6.3-2.9 6.3z" fill="#ddc99e"/><path d="m338.2 254.8c-2.5 8.5 26.1-18.4 25-39.8s-11.3-71.5-11.3-71.5c-5.3.7-9.7 1.5-16.2 6.3.1.1 5 96.5 2.5 105z" fill="#ffe655"/><path d="m341.3 205.2c0-27.9 4.5-51.7 10.9-60.6-.1-.7-.2-1-.2-1-5.3.7-10.2 1.3-16.7 6.1 0 0 5.4 96.7 3 105.2-1 3.3 2.9 1.2 7.9-4-3.1-11.7-4.9-27.9-4.9-45.7z" fill="#f7cd4b"/><path d="m392.1 250.1c-6.7 2-15.8-15.2-17.1-24.9-1.2-9.7 1-74.9-1-80.1 0 0 8.4 4.4 11.1 9.5 13.6 25.3-3.1 32.7-2.3 39.5.9 6.8 11.4 55.4 9.3 56z" fill="#ffe655"/><path d="m382.8 194.1c-.3-2.6 4.5-8.2 5.6-13.1-2.8 4.8-7.6 10.1-7.3 12.5.8 6.4 8.9 50.3 8.4 56.5.9.3 1.8.4 2.6.1 2.1-.6-8.4-49.2-9.3-56z" fill="#f7cd4b"/><path d="m373.6 154.7-9.1-6.9 4.5-8.7 5.2 3.3z" fill="#fff78f"/><path d="m351.3 74.5c-3.7 3.2-7.5 9.7-8.9 22 0 0 3-13.4 13.7-19.5z" fill="#a88982"/><path d="m335.7 68.5c-4.4 2-10 7.2-14.7 18.6 0 0 6.7-12.1 18.6-14.9z" fill="#a88982"/><path d="m343.1 78.1c-5.5 3.5-11 10.5-12.4 22.8 0 0 3.8-13.7 19.9-20.8z" fill="#a88982"/><path d="m349.4 350.5c2.3-10.9 3.9-28.7 5.2-31.8s4 33.6 4 33.6-6.4-.4-9.2-1.8z" fill="#b5ac3a"/><path d="m397.6 348.4c-2.3-5.6-3.8-19.5-4.9-21 .5 12.2-2 22.7-2 22.7s2.1-.4 6.9-1.7z" fill="#b5ac3a"/><ellipse cx="358.2" cy="205.8" fill="#b5ac3a" rx="2.2" ry=".6" transform="matrix(.9934 -.1147 .1147 .9934 -21.2368 42.4319)"/><path d="m357.8 191.4c0-.3-1-.5-2.2-.4s-2.1.5-2.1.9c0 .3 1 .5 2.2.4s2.2-.5 2.1-.9z" fill="#b5ac3a"/><ellipse cx="353.5" cy="176.8" fill="#b5ac3a" rx="2.2" ry=".6" transform="matrix(.9934 -.1144 .1144 .9934 -17.9045 41.6033)"/><path d="m380.2 149.2c-2.8-2.2-5.7-3.8-6.1-4.1l.1-2.7-4.9-3.2v-13.9h-11.5v14.3l-.2-.1-4.5 3.1.4.8c-.3 0-.7 0-1 .1-.1 0-.2 0-.4.1-3 .4-5.9.8-8.9 1.9-3 1-6.1 2.5-9.2 4.4 3.9 3.6 12.7 6 22.9 6 10.6-.1 19.7-2.8 23.3-6.7z" fill="#a0513c" opacity=".5"/><path d="m386 79.3c-2.5-5.5-20-4.1-27.5 2.1-8.2 6.7-14.1 21.8-10.2 37.6 2.6 10.3 10.3 16.9 20.5 17 6.9.1 17.6-2.6 14.3-21-1.9-10.1 9-22.5 2.9-35.7z" fill="#ffc397"/><path d="m386 79.3c-2.5-5.5-20-4.1-27.5 2.1-8.2 6.7-14.1 21.8-10.2 37.6 2.6 10.3 10.3 16.9 20.5 17 6.9.1 17.6-2.6 14.3-21-1.9-10.1 9-22.5 2.9-35.7z" fill="#ffc397"/><path d="m367 103.7c-3.5-.8-7.2 2.6-8.4 7.7s.6 9.9 4.1 10.7 7.2-2.6 8.4-7.7c1.2-5-.7-9.8-4.1-10.7zm3.1 10.7c-.9 4.2-4 6.9-6.9 6.1s-4.6-4.8-3.7-9 4-6.9 6.9-6.1 4.6 4.8 3.7 9z" fill="#f7a27c"/><path d="m371 113.9 3 .9-.2.9-3.1-.8z" fill="#f7a27c"/><path d="m383.7 120.5c-1.4 1.9-3.3 2.9-5.2 2.4-2.9-.8-4.6-4.8-3.7-9s4-6.9 6.9-6.1c.5.1 1.1.7 1.5 1 .1-.7.4-1.5.6-2.1-.4-.2-1.1-.5-1.5-.6-3.5-.8-7.2 2.6-8.4 7.7s.6 9.9 4.1 10.7c2.2.5 4.5-.6 6.2-2.8-.3-.4-.4-.8-.5-1.2z" fill="#f7a27c"/><path d="m360.2 113h-13.5l.9.7 12.4.8z" fill="#f7a27c"/><path d="m353.1 119.5c-3.9-15.8 1.9-30.9 10.1-37.7 4.1-3.3 13.9-4.8 19.9-5-6-2.3-18.5-.5-24.5 4.5-8.2 6.7-14.1 21.8-10.2 37.6 2.6 10.3 10.3 16.9 20.5 17h1.2c-7.2-2.2-15-8.3-17-16.4z" fill="#f7a27c"/><path d="m353 124.3c-1.6-12.6-8.2-16.2-11.9-16.5 0 0 6.7-16.2 12.4-21.3 0 0-3.3 12.6-2 17.9 1.7 7.1 2.7 14.3 1.5 19.9z" fill="#916c66"/><path d="m349.4 112.6c-1.8-2.6-4.5-3.2-6.1-2.6s-1 5.5.9 8.1c1.8 2.6 4.6 4.2 6.3 3.5 1.6-.6.8-6.5-1.1-9z" fill="#ffc397"/><path d="m349.3 114.1c-1.2-1.8-3.1-2.2-4.2-1.7-1.1.4-.7 3.7.6 5.5 1.2 1.8 3.1 2.8 4.3 2.4 1.1-.5.5-4.4-.7-6.2z" fill="#ef8f6f"/><path d="m350.1 116.9c-.8-1.1-2-1.4-2.7-1.1s-.4 2.4.4 3.5 2 1.8 2.7 1.5.4-2.8-.4-3.9z" fill="#ffc397"/><path d="m368.7 101.9c-3.5-.8-7.2 2.6-8.4 7.7s.6 9.9 4.1 10.7 7.2-2.6 8.4-7.7c1.2-5-.6-9.8-4.1-10.7zm3.1 10.7c-.9 4.2-4 6.9-6.9 6.1s-4.6-4.8-3.7-9 4-6.9 6.9-6.1c3 .8 4.6 4.8 3.7 9z" fill="#f4e5b3"/><path d="m363 100c1.7-1.8 5.4-4.1 9.2-.9l-.4 1.6s-2.9-3.5-8.6-.2z" fill="#916c66"/><path d="m386.4 104.1c-.7-2.2-2.8-5.4-7-3.5l-.2 1.6s3.6-2.4 6.9 2.3z" fill="#916c66"/><path d="m352.4 88.9c2.5-2.9 9.2 1.2 16.8-1.3s16.5-9 16.6-11.3-20.2-3.8-26.1 1c-8.1 6.3-7.3 11.6-7.3 11.6z" fill="#a88982"/><path d="m387.2 101.3c1.3-3.1-4.7-4.5-5.8-10.2s.5-14.6 2.4-16 11.3 9.1 9.9 15.2c-1.9 8.3-6.5 11-6.5 11z" fill="#a88982"/><path d="m374.4 122.2c-.4-1.1-.8-5.2-2.2-4.7s-3.3 5.4-2.9 6.6c.4 1.1 1.9 1.6 3.3 1.1 1.5-.5 2.3-1.8 1.8-3z" fill="#f7a27c"/><path d="m375.1 123.4c0-1-1.3-6.2-2.2-6.2s-1.4 4.3-1.4 5.4c0 1 .8 1.9 1.7 1.9s1.9 0 1.9-1.1z" fill="#ffc397"/><path d="m366.8 126.2 6.6 1.4s-1.8 3.9-4.4 3-2.2-4.4-2.2-4.4z" fill="#563528"/><path d="m370.4 132.6c.1-.4-.8-.5-1.8-.7s-1.7-.5-1.8-.1.6.9 1.6 1.1 1.9.1 2-.3z" fill="#f7a27c"/><path d="m367 126.5.1 1.5 4.6 1.4 1.3-1.6z" fill="#fff2d7"/><path d="m368.3 112.8c.1-.9-.3-1.8-1-1.9s-1.4.6-1.5 1.5c-.2.9.3 1.8 1 1.9s1.4-.6 1.5-1.5z" fill="#543432"/><path d="m368.5 114.1s-4.4-.7-5.7-.6l5.2 1.8z" fill="#ef8f6f"/><path d="m381.6 115.4c.1-.9-.3-1.8-.9-1.9-.7-.1-1.3.6-1.5 1.5-.1.9.3 1.8 1 1.9.6.1 1.3-.5 1.4-1.5z" fill="#543432"/><path d="m381.8 116.7s-4.2-.7-5.5-.6l5 1.8z" fill="#ef8f6f"/><path d="m379.6 113.1s2.4 1.9 3.2 2.2l-2.3-3.2z" fill="#ef8f6f"/><path d="m368.5 111.5s-3.6.3-4.5.1l4.3-1.4z" fill="#ef8f6f"/><path d="m384 104.3c-3.5-.8-7.2 2.6-8.4 7.7s.6 9.9 4.1 10.7 7.2-2.6 8.4-7.7c1.2-5-.7-9.8-4.1-10.7zm3.1 10.6c-.9 4.2-4 6.9-6.9 6.1s-4.6-4.8-3.7-9 4-6.9 6.9-6.1 4.6 4.9 3.7 9z" fill="#f4e5b3"/><path d="m372.8 112.1 2.9.9-.2.9-3-.8z" fill="#f4e5b3"/><path d="m360.5 110.2h-13.5l.9.8 12.3.7z" fill="#f4e5b3"/><path d="m369.9 93.8c-.5-.2 10 .9 11.6 1.7 0 0-9.8-.8-11.6-1.7z" fill="#f7a27c"/><path d="m339 226 11.7-5.1s.4 8.8-5.8 10.9c-6.1 2-5.9-5.8-5.9-5.8z" fill="#f7cd4b"/><path d="m337.8 225.1 12.5-4.7s-.9 8-7.4 9.9c-6.4 1.9-5.1-5.2-5.1-5.2z" fill="#fff86c"/><path d="m388.4 225.4-8.6-4.7s-.3 8 4.2 9.9c4.6 1.9 4.4-5.2 4.4-5.2z" fill="#f7cd4b"/><path d="m389.3 224.6-9.2-4.2s.6 7.3 5.4 9 3.8-4.8 3.8-4.8z" fill="#fff86c"/><path d="m431.3 238.3c-6.7-12.5-8-40.7 15.7-38.9s51.2 34.2 45.6 70.1c-6.7 43.2-40.4 24.5-50.8 14.5-10.3-10-3.8-33.2-10.5-45.7z" fill="#87491f"/><path d="m473.6 213.3v.2c2.6 19.8-10.4 24.7-23.2 24.7-12 0-21.9-9.7-23.1-22.2-1 7.8 1 16.6 4 22.3 6.7 12.5.1 35.7 10.5 45.7s44.1 28.7 50.8-14.5c3.5-22.2-5.8-43.1-19-56.2z" fill="#6b3815"/><path d="m440.3 229.6c-2.2 5.5-3.2 12.5-2.5 20.1 1.5 16.2 10.1 28.6 19.2 27.7s15.3-14.6 13.7-30.8c-.7-7.1-2.7-13.4-5.5-18.2-4.3 2.6-9.8 3.5-15.3 3.5-3.4-.1-6.7-.9-9.6-2.3z" fill="#542b10"/><path d="m468.3 317.6-17.9 7.2c-.1-5.1-.2-8.3-.2-8.3l-10.3-5.7s1 24 4.9 45.5c3.6 19.8 4.6 36.9 4.2 42.7.3.3 2.7 2 2.7 1.4.4-7.4-.5-46.8-1.1-68.8 4.6 4.4 10.6 12.2 12.8 24.7 3.6 19.8 4.6 36.9 4.2 42.7.3.3 2.7 2 2.7 1.4.6-10.5-2-82.8-2-82.8z" fill="#ffc397"/><path d="m447.5 375.3c1.3-.2 2.6-.4 4-.4-.3-14.3-.7-31.4-1-43.4 4.6 4.4 10.6 12.2 12.8 24.7 1.3 7.3 2.3 14.2 3 20.3 1.3.4 2.6.8 3.8 1.3-.6-24.8-1.8-60.3-1.8-60.3l-17.9 7.2c-.1-5.1-.2-8.3-.2-8.3l-10.3-5.7s1 24 4.9 45.5c1.2 6.9 2.1 13.3 2.7 19.1z" fill="#ef8f6f"/><path d="m464.2 260.7c-1.1.7 1.8 5.4 6.6 10.8 2.1 2.4 6.4 7 8 8.9 2.4 2.7 2.7 7.3 3.7 7.4 13.8 1.6-11.9-30.8-18.3-27.1z" fill="#ffc397"/><path d="m479.9 272.1c-5.4-6.9-12.7-13.1-15.7-11.4-1.1.7 1.8 5.4 6.6 10.8 1.4 1.6 3.7 4.1 5.5 6.1.8-2.2 2.1-4.2 3.6-5.5z" fill="#ef8f6f"/><path d="m455.4 251.6-11.8.1v6.5h11.8z" fill="#ef8f6f"/><path d="m438.2 262.2c-.2-1.2-5.4-.4-11.8 1.9-2.8 1-8.4 3-10.6 3.8-3.2 1.1-7.3-.3-7.8.6-6.3 11.4 31.2.6 30.2-6.3z" fill="#ffc397"/><path d="m426.4 264.1c-2.4.8-6.9 2.5-9.5 3.4.2 1 .4 2 .4 3 0 .9-.1 1.7-.3 2.6 9.3-1.5 21.8-6.8 21.2-10.8-.2-1.3-5.4-.5-11.8 1.8z" fill="#ef8f6f"/><path d="m426.4 277-4.8-12.7s14.7-5.9 15.5-3.7c2.9 8.1-10.7 16.4-10.7 16.4z" fill="#617a93"/><path d="m424.9 360.3c27.7 7.6 36.8 14 65.2-6.2 0 0-24.7-70.2-24.4-96.6 0 0-19.3-2.4-30.2 2.4-1.9 15.7-2 33.7-4 50.4-2.3 20.4-4 42.6-6.6 50z" fill="#617a93"/><g fill="#7cb3ce"><ellipse cx="463.6" cy="347.3" rx="1.1" ry="2" transform="matrix(-.9845 .1752 -.1752 -.9845 980.8144 607.9651)"/><ellipse cx="450.7" cy="356.9" rx="1.1" ry="2" transform="matrix(-.9844 .1758 -.1758 -.9844 957.1426 629.0057)"/><ellipse cx="447.1" cy="342.2" rx="1.1" ry="2" transform="matrix(-.9844 .1757 -.1757 -.9844 947.3569 600.4706)"/><path d="m435.4 348c-.2-1.1.1-2.1.7-2.2s1.2.7 1.4 1.8-.1 2.1-.7 2.2-1.3-.7-1.4-1.8z"/><ellipse cx="467.9" cy="331.7" rx="1.1" ry="2" transform="matrix(-.9843 .1764 -.1764 -.9843 986.8855 575.6765)"/><path d="m438.5 312.6c-.2-1.1.1-2.1.7-2.2s1.2.7 1.4 1.8-.1 2.1-.7 2.2-1.2-.7-1.4-1.8z"/><path d="m448.4 324c-.2-1.1.1-2.1.7-2.2s1.2.7 1.4 1.8-.1 2.1-.7 2.2-1.2-.7-1.4-1.8z"/><ellipse cx="457.5" cy="301.8" rx="1.1" ry="2" transform="matrix(-.9844 .1759 -.1759 -.9844 960.9606 518.4442)"/><ellipse cx="471.4" cy="312.5" rx="1.1" ry="2" transform="matrix(-.9844 .1758 -.1758 -.9844 990.3967 537.3071)"/><ellipse cx="451.4" cy="290.8" rx="1.1" ry="2" transform="matrix(-.9844 .1758 -.1758 -.9844 946.9611 497.743)"/><path d="m441.3 279.9c-.2-1.1.1-2.1.7-2.2s1.2.7 1.4 1.8-.1 2.1-.7 2.2-1.3-.7-1.4-1.8z"/><ellipse cx="456.8" cy="267.9" rx="1.1" ry="2" transform="matrix(-.9846 .1747 -.1747 -.9846 953.4362 451.9708)"/><ellipse cx="459.7" cy="317.2" rx="1.1" ry="2" transform="matrix(-.9846 .1747 -.1747 -.9846 967.7949 549.2684)"/><path d="m437.2 329.1c-.2-1.1.1-2.1.7-2.2s1.2.7 1.4 1.8-.1 2.1-.7 2.2c-.6.2-1.2-.7-1.4-1.8z"/><ellipse cx="481.5" cy="340.9" rx="1.1" ry="2" transform="matrix(-.9843 .1763 -.1763 -.9843 1015.5018 591.597)"/><ellipse cx="464.7" cy="289.1" rx="1.1" ry="2" transform="matrix(-.9845 .1752 -.1752 -.9845 972.9044 492.3527)"/><path d="m447.8 268.2c-.2-1.1.1-2.1.7-2.2s1.2.7 1.4 1.8-.1 2.1-.7 2.2-1.3-.7-1.4-1.8z"/><path d="m438.8 298.4c-.2-1.1.1-2.1.7-2.2s1.2.7 1.4 1.8-.1 2.1-.7 2.2c-.5.2-1.2-.7-1.4-1.8z"/></g><path d="m465.7 257.6s-.1 0-.2 0c-2 28.6 16 92.9 18.2 100.9 2-1.3 4.1-2.7 6.4-4.3 0 0-24.7-70.2-24.4-96.6z" fill="#41596d"/><path d="m428.1 359.6c1.8-7.4 3.1-29.7 4.8-49.9 1.4-16.5 2.3-34 1.7-39.8-1 13.1-1.5 27.3-3 40.5-2.4 20.2-4.1 42.5-6.6 49.9 5.8 1.6 10.9 3.2 15.4 4.4-4-1.6-8-3.4-12.3-5.1z" fill="#41596d"/><path d="m449.8 269.8c7.4 0 11.7-6.9 13.8-12.4-6.3-1.1-17.2-.8-25.2 1.4.1 5.2 1.7 11 11.4 11z" fill="#9bb9d3"/><path d="m450.1 268.4c6.3 0 10.4-6.6 12.2-11.2-5.4-.9-16.2-.5-23 1.4.1 4.3 2.6 9.8 10.8 9.8z" fill="#ffc397"/><path d="m481 279.4c-2.4 1.4 6.4 24.4 8.4 27.5 1.2-5.6-1.6-31.6-8.4-27.5z" fill="#ffc397"/><path d="m451.8 401.1h-13.3s8.5-4.9 11.2-3.8c2.3.8 2.1 3.8 2.1 3.8z" fill="#f4e0b8"/><path d="m473.9 401.1h-9.1s2.3-4.8 5.1-3.8c3 1 4 3.8 4 3.8z" fill="#f4e0b8"/><path d="m471.4 281.5 5.7-13.8s-11.2-11.7-12.5-9.8c-5 7 6.8 23.6 6.8 23.6z" fill="#617a93"/><path d="m470.1 280.4 6.3-14 2 1-6.5 15.9z" fill="#7cb3ce"/><path d="m472.4 263c-2.4-2.3-5.2-4.7-6.8-5.2 0-.1 0-.1 0-.2 0 0-1-.1-2.7-.3-.2 0-.4-.1-.6-.1-1.8-.3-4.2-.4-6.9-.4v-5.2l-11.8.1v6c-1.3.2-2.5.5-3.6.8-.2 0-.4.1-.6.1h-.1c-.3.1-.6.2-.9.2v.1c-1 .3-2 .7-3 1.1v.1c-1.6.1-4 .7-6.5 1.5 4.1 3.3 12.7 5.6 22.8 5.6 8.6 0 16.2-1.7 20.7-4.2z" fill="#a0513c" opacity=".5"/><path d="m473.2 236.2c1.2-2.5.7-5.1-1-5.8-1.8-.7-4.2.7-5.3 3.1-1.2 2.5-.7 5.1 1 5.8 1.7.8 4.1-.7 5.3-3.1z" fill="#ffc397"/><path d="m471.8 235.9c.7-1.5.4-3-.6-3.5-1.1-.4-2.5.4-3.2 1.9s-.4 3 .6 3.5c1.1.4 2.5-.4 3.2-1.9z" fill="#ef8f6f"/><path d="m470 237.6c.4-.8.2-1.6-.3-1.9-.6-.2-1.3.2-1.7 1s-.2 1.6.4 1.9c.5.2 1.2-.2 1.6-1z" fill="#ffc397"/><path d="m462.9 224.2c-1.5-4.8-1.6-16.8-15.5-14.8s-20.1 21.6-20.3 27c-.6 12.5 10.8 18.6 20.4 19.1s17.5-2.6 21-11.2c2.9-7.4-2.3-9.2-5.6-20.1z" fill="#ffc397"/><path d="m464.9 244.2c2.2-3.2 1.8-13.8 5.8-15.7l-7.4-12.8s-1.3 9.5 0 14.2c1 3.6 1.6 14.3 1.6 14.3z" fill="#87491f"/><path d="m476.1 228.8s-1.5-7.5-4.6-11.1c0 0 4.8 3.1 6.4 5.5 1.7 2.4-1.8 5.6-1.8 5.6z" fill="#6b3815"/><path d="m466.6 219.8s6.8 3.3 9.5 7.2c0 0-1.8-5.3-3.6-7.5s-5.9.3-5.9.3z" fill="#87491f"/><path d="m440.7 233.1c-1-1.2-3.6-1.5-4.3-.6-1.1 1.3.8 4 2.6 4.1 1.7 0 2.8-2.2 1.7-3.5z" fill="#ffc397"/><path d="m446.2 212.6c8.2 1.4 14.4 8.2 14.4 8.2l-1.2.9c-.8-.7-6.7-5.9-13.4-6.9z" fill="#7c3d2c"/><path d="m439.3 213.2-.2 2.4c-1.7.4-3.3 1.2-4.8 2.4l-.3-1.7c-.1 0 1.7-2.4 5.3-3.1z" fill="#7c3d2c"/><path d="m445.4 241.8c.1-.3.1-.6-.2-.9-.2-.3-.5-.5-.9-.5l-10.1-1.5c-.3 0-.5 0-.7.2-.2.1-.3.4-.2.6.3 2.4 2.5 4.9 5.7 5.4 4.1.5 5.5-.9 6.4-3.3z" fill="#542c23"/><path d="m435 242.2c-.2-1.6-.1-3-.1-3l9.7 1.8s-.2.8-.9 2.3c-3.1 1.1-5.6 1.1-8.7-1.1z" fill="#ffeae6"/><path d="m443.6 230.7c-2.2-2.2.3-9.4 4.7-8.7s8.9 7.9 5.9 10.2c-3 2.5-9.1 0-10.6-1.5z" fill="#aa391f"/><path d="m443.4 231.6c-2.2-2.2.3-9.4 4.7-8.7s8.9 7.9 5.9 10.2c-3 2.4-9.1 0-10.6-1.5z" fill="#fff9e9"/><path d="m449.3 224.9c-3.9-4-7.4 1.7-4.7 3.9 3.9 3.3 7-1.7 4.7-3.9z" fill="#5795aa"/><path d="m453.1 225.6 1-1.3-1-1-.5 2.1z" fill="#aa391f"/><path d="m451 223.5.7-1.5-1.1-.9-.1 2.1z" fill="#aa391f"/><path d="m448.2 222.3.2-1.7-1.4-.6.7 2.2z" fill="#aa391f"/><path d="m446 224.8c-.8-1.2-1.8.3-1.2 1 .8 1 1.7-.3 1.2-1z" fill="#7dc5d8"/><path d="m437.9 229.2c1.7-1 2.9-7 .8-7.8-2.2-.7-6.5 3.4-6 5.9.6 2.7 4 2.6 5.2 1.9z" fill="#aa391f"/><path d="m437.7 229.9c1.8-1 2.9-7 .6-7.8-2.3-.7-6.8 3.3-6.1 5.9s4.3 2.6 5.5 1.9z" fill="#fff9e9"/><path d="m436.6 222.6c3.3-.1 1.2 5.2-.8 5-2.9-.3-1.1-5 .8-5z" fill="#5795aa"/><path d="m435.4 222.8v-1.3l.8-.5-.5 1.7z" fill="#aa391f"/><path d="m437 221.7.2-1.3.8-.3-.7 1.6z" fill="#aa391f"/><path d="m438.6 221.6.5-1.3h.8l-1 1.4z" fill="#aa391f"/><path d="m435.8 223.6c.9-.2.4 1.2-.2 1.3-.8.1-.3-1.2.2-1.3z" fill="#7dc5d8"/><path d="m436.3 232.7c.4 1.2 1.6 2.3 2.7 2.4.9 0 1.7-.6 2-1.4.5 1.3-.5 3-2.1 2.9s-3.4-2.5-2.6-3.9z" fill="#ef8f6f"/><path d="m488.9 303.6c.7.2.6 2.6 3.1 3.9.4.2 1.1.5 1.8.8 1.2.5 2.2 1.6 2 2.1-.2.4-1-.4-1.8-.8-.7-.4-1-.5-1.1-.3-.1.1.8.8 1.7 1.5 1.2.9 1.9 1.8 1.6 2.2s-.9-.4-2.1-1.1c-1-.6-1.4-1-1.7-.6-.1.2.5.7 1.3 1.7 1 1.1 1.3 2 1 2.3-.5.4-.6-.4-1.8-1.6-1.6-1.5-2.9-3.1-4.2-3.2-1.2-.1-1.4 2.5-2.3 1.9-.7-.5.4-2.4 1.5-4.9.8-2.2.3-4.2 1-3.9z" fill="#ffc397"/><path d="m179.6 217.4c-.9-1.7-5.4-1.2-5-2.8.3-1.3 4.1-.3 6.3-.2 3.9.3 7-11.3 10.9-1.1.5 1.2-4.2 4-4.4 8.6v3.2c0 2.2-1.1 4.3-2 4-.8-.2 0-1.7 0-3.3 0-1.3.1-1.8-.3-1.9-.3 0-.7 1.6-1.2 3.4-.7 2.3-1.6 3.7-2.5 3.4s0-1.7.3-3.8c.3-1.9.6-2.7-.4-3-.4-.2-.8 1-1.8 2.8-1.2 2-2.5 2.9-3.2 2.5-1-.6.3-1.1 1.3-3.6.6-1.4 1.2-2.7 1.7-3.9-1.1.9-2.3 1.6-2.9 2.1-1.9 1.3-3.6 1.5-4 .8-.6-1 .8-.9 2.8-2.6 1.2-1.3 3.2-3.4 4.4-4.6z" fill="#fbc297"/><path d="m217.4 181.5c2.9 2.4 18.6-26.7 28.3-52 5.4-13.8 5.6-27.1 3.6-32.4-5.8-15.3-41.8 52.2-40.3 70.7 7.3 12 8.4 13.7 8.4 13.7z" fill="#dcdedb"/><path d="m220.9 173.4c3.4-6.3 2.5-19.9 15-41.6 14.1-24.5 11.7-39.2 13.4-34.6 2 5.3 3.1 19.5-2.7 33.2-7.1 16.6-9.9 22.6-18.6 37.8z" fill="#c9cbc8"/><path d="m198.5 210.7-6.7 7.2-9.4-7.6 4.9-8.9z" fill="#f8cd89"/><path d="m195.6 215.3c2-1.4 29.9-40.6 30.3-45.5.8-11.7-8.3-23.5-11.3-19.3-10.4 14.7-25.5 40.3-34.2 52.4 7.2 8 15.2 12.4 15.2 12.4z" fill="#dcdedb"/><path d="m217.5 176.1c3-6.8 5.8-13.3 7.5-17.8 1 3.2 5.5.7 5.3 4.8-.3 4.9-32.1 51.8-34.1 53.1 0 0-2.1-1.3-4.9-3.4 4-3.4 24.3-32.4 26.2-36.7z" fill="#c9cbc8"/><path d="m130.6 73.3c12.8-4.9 49.7-29.6 30.7-31.9-44-5.3-36.5 27.8-37 31.9-.3 1.6 6.3 0 6.3 0z" fill="#916c66"/><path d="m137.8 55c13.7-.4 63.1 8 52.6-8-12.1-18.4-52.8.7-54.8 4.4-.7 1.4 2.2 3.6 2.2 3.6z" fill="#916c66"/><path d="m139.1 54.5c12.5.1 54.8 11.7 46.6-5.5-8.6-17.9-46.9-1.8-48.6 1.8-.7 1.4 2 3.7 2 3.7z" fill="#a88982"/><path d="m142.4 91.6c1.3-14.8 31.7-56.4 3.1-48.6-37.9 10.4-15.6 58.3-15.6 58.3z" fill="#a88982"/><path d="m134.7 396.1h7.2s11.3-31.4 5.8-59.7c-4.5-23.3 8.9-43.5 14.8-43.7 9.9-.4 21.4 24.3 20.8 43.7-1 31.9 13.6 61.2 13.6 61.2s2.9 0 6.3 0c-3.3-59.4 10.3-91.8 11.5-151.4.6-27-101.5-28.3-99.5 6.5 3.8 62.2 20.9 98.4 19.5 143.4z" fill="#4c403b"/><path d="m161.7 292.8c-.8-.3-.2-1.4-1.1-1.4-5.9.2-19.3 20.6-14.8 43.8 5.5 28.3-7.2 60.5-7.2 60.5h-3.9v.3h7.2s11.3-31.4 5.8-59.7c-4.3-22.2 7.8-41.7 14-43.5z" fill="#352a26"/><path d="m214.7 246.2c.2-11.5-18-18.3-38.8-19.7 19.5 1.9 35.8 8.6 35.6 19.4-1.2 59.6-14.9 92-11.5 151.4-1.1 0-2.2 0-3.1 0 .1.2.1.3.1.3s2.9 0 6.3 0c-3.5-59.4 10.2-91.8 11.4-151.4z" fill="#352a26"/><path d="m135.8 395.6c5.6-58.1-14.2-69.4-11.1-116.3 21 3.9 47.9 5.7 86.2-.3.8-5.8 5.4-32.1 5.4-32.8.6-27-103.1-28.2-101 6.5 3.7 62.2 20.9 98.3 19.5 143.4z" fill="#352a26"/><path d="m186.2 335.9c.6-19.4-11-46.4-20.9-46-1.3.1-2.8 1.2-4.5 3.3.6-.3 1.2-.5 1.7-.5 9.9-.4 21.4 24.3 20.8 43.7-1 31.9 13.6 61.2 13.6 61.2s1.4 0 3.3 0c-2.4-6.2-14.9-33.8-14-61.7z" fill="#352a26"/><path d="m63.3 184.8c7.1-23.2 43.7-74.2 64.6-77.9 15.3-2.7 3.3 45.6-.5 47.8-3 1.8-28.5 35.5-53.6 41.5-4.9 1.1-13.1-3.2-10.5-11.4z" fill="#87b9c1"/><path d="m129.4 106.8c.3 13.7-5.6 34.4-8.1 35.9-3 1.8-32.8 40.7-47.9 21-4.9 7.4-8.4 20.7-9.9 20.3-.1.3-.2.6-.3.9-2.5 8.2 5.6 12.5 10.4 11.4 25.2-5.9 50.7-39.7 53.6-41.5 3.8-2.3 15.1-47.3 2.2-48z" fill="#689fa5"/><path d="m250 193.5c-4.9-24.5-37-81.7-57.8-88.9-15.3-5.3-7.8 45.1-4.1 48 2.8 2.3 25.4 40.4 50.3 50.5 4.7 2 13.3-1 11.6-9.6z" fill="#87b9c1"/><path d="m215.8 152.8s-6.6-4.5-7.2-5.2c.3-1.6 1.8-10.9 1.8-10.9l7.3 7z" fill="#9dd1d6"/><path d="m200.6 120.8c-2.2-1.8-16.4 3.8-16.2-10.7-3.8 12.5 1 40.3 3.7 42.5 2.8 2.3 25.4 40.4 50.3 50.5 3.2 1.3 8.1.4 10.5-2.9-.8 0-5-28-9.9-37-6.9 48.6-38.4-42.4-38.4-42.4z" fill="#689fa5"/><path d="m112.7 266.1c5.3 13.5 95.6 13.6 103-1.1 9.3-18.4-9.5-155.1-23.5-160.6-13.9-5.5-63.6-3.5-69.3 7.3-9.3 17.8-15.6 140.7-10.2 154.4z" fill="#689fa5"/><path d="m122.5 262.5c4.7 13.4 79.6 12.9 86.2-1.6 8.2-18.2-3.3-150.8-15.6-156.3-12.4-5.5-65.7-3.7-70.8 7-8.4 17.5-4.6 137.4.2 150.9z" fill="#87b9c1"/><path d="m29 217.2c-.6 3.4-6.5 8.9-4.1 10.5 2.1 1.5 7.4.5 6.5-9.9z" fill="#ffc397"/><path d="m30.8 223.1c-3.6-2.8-6.7 1.8-7.4 3.5-.7 1.9 1.4 4.8 2.9 4.9 1.7.1 5.9-7.3 4.5-8.4z" fill="#ffc397"/><path d="m28.9 228.6c.5 2.7 2.4 5.6 3.3 5.1 1-.5-1-2.7-.9-5.3.1-2.8 0-4.6-1-4.6-1.1-.1-2 2.1-1.4 4.8z" fill="#ffc397"/><path d="m25.6 233.4c-.9 2.4-.8 4-.2 4.2s1-1.2 1.9-3.7 2.5-5.3 1.9-5.5-2.7 2.5-3.6 5z" fill="#ffc397"/><path d="m23.2 231.8c-1.3 2.2-1.6 4.9-1 5.2.5.3 1.3-2 2.6-4.3 1.3-2.2 2-3.8 1.5-4.1-.6-.3-1.8.9-3.1 3.2z" fill="#ffc397"/><path d="m22.2 228.5c-1.2 2.3-1.5 3.9-.9 4.2.5.3 1.1-1.4 2.3-3.7s2.1-3.9 1.5-4.2c-.5-.2-1.7 1.5-2.9 3.7z" fill="#ffc397"/><path d="m73.4 172.6c-15.5.6-38.8 28.8-45.7 44.4-2.4 5.5 1.4 8.9 4.6 7.1 19.3-11.2 44.4-22.9 46.3-24.4 12.1-9.6 6.2-27.6-5.2-27.1z" fill="#87b9c1"/><path d="m85.1 177.2c-23.9-28.3-56.8 43.4-56.8 43.4-.4.3-.8.5-1.2.6.5 2.8 3 4.2 5.2 2.9 19.3-11.2 44.4-22.9 46.3-24.4 7.4-5.9 10.9-17.4 6.5-22.5z" fill="#689fa5"/><ellipse cx="163.1" cy="110.8" fill="#a6dbe0" rx="24.5" ry="10.7" transform="matrix(.9951 -.09849083 .09849083 .9951 -10.1147 16.6054)"/><path d="m167.3 129.3c20.9 0 35.7-3.4 41-12.3-5.2-5.6-12.9-12.3-19-13.5-.6-.1-1.1-.3-1.8-.4-.1 0-.3-.1-.4-.1-.2 0-.4-.1-.6-.1-1.6-.3-3.4-.6-5.3-.8-4.7-1.9-11.6-2.7-19.1-2-3.7.4-7.2 1.1-10.3 2.1-2.5.2-5 .6-7.4.9-6.1.9-11.6 2.1-15.6 3.7-.3 0-.5 0-.8.1-1.5.3-3 .8-4.6 1.5v.1c-.5 11.5 19.2 20.8 43.9 20.8z" fill="#a0513c" opacity=".5"/><path d="m133.2 56.5c4.2-10.7 20.5-16.8 31.9-10.9 10.5 5.4 13.1 21.5 18.5 42.2 4.9 18.7-10.6 26.5-23 28.2-14 1.8-31.8 1-33.3-17.1-1.7-21.3 3.1-35.3 5.9-42.4z" fill="#ffc397"/><path d="m135.7 104.8c5.3-7.1-.2-13.3 13.6-13.8s10.6 11.7 16.9 13.8c0 0-10.3 1.8-13.7-6.8-.6-1.5-6.3-1.4-7.3.5s-4.7 5.6-9.5 6.3z" fill="#f7a27c"/><path d="m148.7 85.7c-1.7 1.4-3.2 6.2-.5 6.7s5.4-.3 5.3-1.7c-.2-1.3-3.8-5.7-4.8-5z" fill="#f7a27c"/><path d="m183.6 87.7c-3.3-12.5-4.4-24.2-8-32-2.2-4.8-4-2.6-2.1 2.6 2.7 7.4 4.3 16.6 7.1 27.2 4.9 18.7-10.6 27.2-22.9 28.8-8.3 1.1-18.1.6-24.9-3.3 6.7 6.1 18.2 6.1 27.8 4.9 12.4-1.7 27.9-9.5 23-28.2z" fill="#f7a27c"/><path d="m142.8 96.3c-1.7.7.6 7.1 6 6.9 5.4-.3 4.4-7.4 4.4-7.4s-5.5-1.4-10.4.5z" fill="#562a25"/><path d="m142.3 96.3.9 2.6 9-.3.3-2.7s-3.4-2-10.2.4z" fill="#fff4e6"/><path d="m175.6 89.8c-2.3-18.2-7-37.6.4-40.6 31.8-12.9 7.6 41.5 7.6 41.5z" fill="#a88982"/><path d="m188.6 47c-1.8-.4-6.1-.1-8.9.6 5.6 1.3-3.4 23.2-2.8 42.3l7.2 3.6c.1 0 18.1-43.4 4.5-46.5z" fill="#916c66"/><path d="m179 92.1c.3-7.6 3.9-17.6 8.5-13.1 4.4 4.3 2.1 11.8-2.4 15.4-2.5 2.1-6.4 4.4-6.1-2.3z" fill="#ffc397"/><path d="m181.2 90.8c.2-4.5 2.3-10.5 5.1-7.8 2.7 2.6 1.3 7.1-1.5 9.2-1.5 1.2-3.8 2.6-3.6-1.4z" fill="#ef8f6f"/><path d="m181.4 93.3c-.2-2.4.6-5.6 2.5-4.4 1.8 1.2 1.3 3.6-.2 4.9-.8.7-2.1 1.6-2.3-.5z" fill="#ffc397"/><path d="m212.6 401.1h-17s-.5-4.7 4.4-5.8c5.2-1.1 12.6 5.8 12.6 5.8z" fill="#ddc99e"/><path d="m144.1 401.1h-17.6s6.3-4.7 10.8-6.7c5-2.3 6.8 6.7 6.8 6.7z" fill="#ddc99e"/><path d="m134.4 103.6c5.3-7.1-.2-13.3 13.6-13.8s9.9 12.8 16.3 14.7c0 0-10.1-.1-13.1-7.7-.6-1.5-6.3-1.4-7.3.5s-4.7 5.6-9.5 6.3z" fill="#916c66"/><g fill="#9dd1d6" opacity=".4"><path d="m131.8 162.2 13.8 18.2 11.7-18.4 12.6 15.2 12.2-14.3 9.5 14.6 12.5-16.3 7.7 12.4c-1.4-9.1-2.9-18-4.6-26.2l-2.2-3.6-12.7 16.6-9.1-14-13.2 15.4-13.7-16.6-11.4 17.8-13.7-18-12.2 18.8-4.2-5.2c-.4 4.6-.8 9.3-1.2 14.1l6.4 7.8z"/><path d="m134.5 185.6 13.7 18.1 11.6-18.3 12.8 15.4 12.3-14.5 9.5 14.5 12.5-16.4 8 13c-.6-5.2-1.3-10.5-2-15.8l-5.4-8.7-12.7 16.6-9.2-14.1-12.9 15.2-13.6-16.4-11.4 17.9-13.7-17.9-12.1 18.8-9-11c-.2 3.2-.4 6.4-.6 9.6l10.3 12.5z"/><path d="m193.4 149.2s-4-6-4.8-7.8c1.1-1.4 5.4-9.2 5.4-9.2l4.3 9.9z"/><path d="m169.5 149.2s-3.8-6-4.9-7.4c1.1-1.8 5.5-9.6 5.5-9.6l4.4 9.2z"/><path d="m143.2 149.2s-4.1-6-4.9-7.4c1.1-1.5 5.5-9.6 5.5-9.6l4.4 9.2z"/><path d="m120.1 149.2s-4.4-6.5-4.9-7.4c.5-1.1 5.5-9.6 5.5-9.6l4.4 9.2z"/><path d="m97.4 146.2s-1.9-7-2.1-8.7c1.4-1.1 8.5-7.1 8.5-7.1l.9 10.1z"/></g><path d="m159.4 278.1h8.2v4.1h-8.2z" fill="#b7aa91"/><path d="m182.2 67.7c1.3-6.4 5.8-24.4-6.6-21.5l.1 1.9c4.8.9 7.9 3.4 6.5 19.6z" fill="#a88982"/><path d="m187.2 59.6c.4-4.6 2.4-17.8-9.8-14.3l.4 1.3c4.9.1 8.4 1.6 9.4 13z" fill="#a88982"/><path d="m152.4 286.3c1.5 1 12.3 7.8 24.7.2 0 0-5.5 6.6-13.1 6.4s-11.6-6.6-11.6-6.6z" fill="#352a26"/><path d="m142.1 111.1c-1.3-1-.2-3.1 1.4-2.9 1.5.2 2.9 1.9 4.4 1.9 2.8 0 5-2.1 6.5-1.6s2.3 2.2-1.2 3.8c-2.9 1.3-8.2 1.2-11.1-1.2z" fill="#a88982"/><path d="m117.5 236.7c2.5 5.5 17.6 24.7 45.3 24.1 0 0-35.4 8-45.8-10.2-10.5-18 .5-13.9.5-13.9z" fill="#689fa5"/><path d="m211.1 226.8c-3.3 5.1-21.7 21.9-50.6 17.4 0 0 35.9 13 49.3-3.5 13.4-16.4 1.3-13.9 1.3-13.9z" fill="#689fa5"/><path d="m116.9 202.4c-.4-6.4-1.5-30.3 5.2-48.5 0 0-1.8 21.4-1.6 41.7.2 16.7 2.3 32.2 3.8 39.5 0 .1-6.8-22.9-7.4-32.7z" fill="#689fa5"/><path d="m130.8 59.5c1.2-2.8 9.9-14.2 25.7-14.5 0 0-10.1-2.3-20.1 5.4-9.9 7.6-5.6 9.1-5.6 9.1z" fill="#a88982"/><path d="m226.1 187.3c-.6-4.9 4.9-26.3 6.6-26.3 1.6 0-1.2 21.6 1.6 21.4 2.9-.2-7.8 8.2-8.2 4.9z" fill="#689fa5"/><path d="m80.2 161.4c1.4-2.1 20 3.7 34.8-10.9 0 0-9.1 16.9-15.2 18.7-6.2 1.8-21.5-5.1-19.6-7.8z" fill="#689fa5"/><path d="m208.3 275.2 2.5 6.9-.7 5.4-4.5-12z" fill="#665651"/><path d="m124.9 276.9-2.4 6.9.6 5.3 4.6-11.9z" fill="#665651"/><path d="m224.8 190.6c2.8 15 32.7 36.2 46.1 41 4.7 1.7 4.5-2.3 3.9-5.5-3.3-16.8-25.2-39.4-26.7-41.2-9.9-11.4-25.4-5.5-23.3 5.7z" fill="#689fa5"/><path d="m149.6 84.2c-2 .9-7.1 6.9-4.7 8.1 2.5 1.2 4.8-1.5 5-2.8.4-1.4.8-5.8-.3-5.3z" fill="#ffc397"/><path d="m145.1 80.6c.3-1.3-.2-5.9-3.2-6.3-3-.3-12.8-.7-12.2 9.8.2 3 4.2-1 7.2-1.9 4.1-1.2 6.3-1.6 8.2-1.6z" fill="#f7a27c"/><path d="m151.1 81.2c-.4-1.3-.3-5.9 2.7-6.5s12.7-1.7 12.9 8.8c.1 3-4.3-.7-7.3-1.3-4.2-.9-6.4-1.1-8.3-1z" fill="#f7a27c"/><path d="m152.5 75.5c-1.5-1.4-1.8-6.3 1.1-6.5 2.9-.3 2 1.4 2 1.4s1.2-2 3.2-1.3c1.9.7 1.6 2.7 1.6 2.7s1.1-2.5 2.7-1.5 1.7 3.4 1.7 3.4.8-2.2 2.2-1.2.9 6.8-3.3 6c-2.3-.6-3.4-1.6-5.2-2.1-2.5-.5-4.6.5-6-.9z" fill="#916c66"/><path d="m132.3 78c-1.8-.5-4.1-4.6-1.8-6.3 2.3-1.6 2.3.3 2.3.3s.2-2.3 2.1-2.7c1.9-.3 2.4 1.5 2.4 1.5s-.1-2.7 1.7-2.6 2.8 2.1 2.8 2.1-.3-2.3 1.3-2.1 3.5 5.5-.3 6.9c-2.2.6-3.5.2-5.2.8-2.3.7-3.5 2.6-5.3 2.1z" fill="#916c66"/><path d="m139.8 82.3c-.5-1.7-1.7-2.7-2.8-2.4-1.1.4-1.6 2-1.1 3.7s1.8 2.7 2.8 2.4c1.1-.4 1.6-2 1.1-3.7z" fill="#6b4e43"/><path d="m160.2 82.1c-.5-1.7-1.7-2.7-2.8-2.4-1.1.4-1.6 2-1.1 3.7s1.8 2.7 2.8 2.4c1.1-.4 1.6-2 1.1-3.7z" fill="#6b4e43"/><path d="m134.5 88.9c.6-.4 4.6-2.6 7.5-2.3v1.7z" fill="#f7a27c"/><path d="m163.4 88.9c-.6-.4-4.5-2.8-7.4-2.7l-.1 1.7z" fill="#f7a27c"/><path d="m93.1 204.6 11.9 16.1s-24.1 16.1-40.7 8.6c-6.9-3.1-7-12.5-.8-14 13.5-3.3 29.6-10.7 29.6-10.7z" fill="#cc586e"/><path d="m101 215.2c-6.6 3.9-24.8 13-38.2 7.1-1.5-.7-2.7-1.7-3.6-2.9-1 3.4.7 7.9 5 9.9 16.7 7.4 40.7-8.6 40.7-8.6z" fill="#b2445e"/><path d="m71.4 319.3c-11.7 2.9-23 2.7-32.5 0 1.2 34 4.1 77.6 4.1 77.6l3.7-.4s.1-65.3 18.9-68.3c17.7-2.9 19.3 70.4 19.3 70.4l2.9-1.6s4.3-47.3 3.3-85.8c-5.6 3.4-12.3 6.3-19.7 8.1z" fill="#ffc397"/><path d="m60.4 312.8c-7.8 0-15.2-1.3-21.7-3.5.4 18.8 1.7 42.9 2.8 61.1 2.3-.9 4.6-1.7 7.2-2.3 2.1-18 6.8-38.3 17.1-40 9.6-1.6 14.5 19.2 16.9 38.6 2.5.4 5 1 7.4 1.6 1-18.3 1.9-42.3 1.1-62.9-8.4 4.6-19.1 7.4-30.8 7.4z" fill="#ef8f6f"/><path d="m36.9 358.9 20.2.4s2.1-23.1 8.2-23.5c6.2-.4 9.9 25.5 9.9 25.5l23-5.8-7-60.5-54.3 13.2z" fill="#f9cb82"/><path d="m76.1 357.1 21.6-5.7.2 1.9-21.8 7.5z" fill="#e8a569"/><path d="m57.2 357.1-17.5-2.9-.7 3.5 18.3 2.1z" fill="#e8a569"/><path d="m67 335.9s1.6 2.3 1.6 2.3c4.2 6.3 6.6 23.2 6.6 23.2l2.8-.7c-1.2-6.8-5.1-26.5-11-24.8z" fill="#e8a569"/><path d="m40.6 319.6c19.7.7 41.1-4 52.1-11.7l-1.4-12.8-54.3 13.2v50.6l3.3.1z" fill="#e8a569"/><path d="m35.3 314.4c16.4 5 53.7-4.2 58.1-13 1.2-15.9-11.7-83.8-23-86.3-11.2-2.5-32.4 3.6-34.2 10.3-1.7 6.7-2.9 54.6-.9 89z" fill="#cc586e"/><path d="m42.7 313.5c-1.8-30-3.1-76.6-2.2-92.6-2.2 1.4-3.8 3-4.2 4.5-1.8 6.7-3 54.6-.9 89 13.9 4.3 42.8-1.7 54-9-13.9 6.4-35.5 11.5-46.7 8.1z" fill="#b2445e"/><path d="m42.3 220.8-3.9-15.9 16.3-.7 4.6 11.6z" fill="#ef8f6f"/><path d="m5.4 256.4c5-2.3 26.6 35.3 28.3 40.9-8-2.6-43.3-34-28.3-40.9z" fill="#ffc397"/><path d="m16.9 268.1c-4.9-7.2-9.5-12.5-11.5-11.6-5.1 2.3-4.4 7.5-1 13.3 3.4-1.9 7.8-2.4 12.5-1.7z" fill="#ef8f6f"/><path d="m100.6 401.1h-17s-.5-4.7 4.4-5.8c5.2-1.1 12.6 5.8 12.6 5.8z" fill="#ddc99e"/><path d="m51.2 401.1h-17s4.4-4.7 8.9-6.7c4.8-2.3 8.1 6.7 8.1 6.7z" fill="#ddc99e"/><path d="m22.9 264.7-22.2-6.2s11.5-30.9 37.1-37.3c8.3-2.1 15.2 11.1 9 15.1-21 13.6-23.9 28.4-23.9 28.4z" fill="#cc586e"/><path d="m38.4 221.7 2.9-2 12.6-2-4.8 13.2z" fill="#b2445e"/><path d="m50.4 219.3 8.8-4.8 3.1.3-1.7 10.4z" fill="#b2445e"/><path d="m14.5 262.4 8.4 2.3s4.1-13.7 23.5-28.2c-19.5 9.5-29.2 20.7-31.9 25.9z" fill="#b2445e"/><path d="m0 259.1 1.5-7.3 23.7 9.5-2 3.9z" fill="#ea7894"/><path d="m39.4 220.8 1.3-3.4h11.3l-3.4 11.2z" fill="#ea7894"/><path d="m51.3 217.9 7.3-4.5 2.7.8-1.2 8.6z" fill="#ea7894"/><path d="m87.8 205.3 6-2.1 12.3 17.7-1.8 1.8z" fill="#ea7894"/><path d="m66.1 250.5-18.9 9.4 11.8 23.2 18.6-15.3zm-11.8 8.7 12.1-6 7.3 11-11.9 9.8z" fill="#f993ac"/><path d="m69.3 239.5-18 8.9 11.2 22 17.7-14.5zm-14.2 14.9 11.5-5.7 7 10.5-11.3 9.3z" fill="#f993ac"/><path d="m59.9 287-1.6-2.3-2.4 1.5 1.6 2.4z" fill="#f993ac"/><path d="m80.7 265.8-1.5-2.4-2.4 1.5 1.5 2.4z" fill="#f993ac"/><path d="m71.8 237.3-1.6-2.4-2.4 1.5 1.6 2.4z" fill="#f993ac"/><path d="m58.7 333.2s7.8 4.5 15.8-2.5c0 0-.6 6.1-8.8 6.4-6.8.2-7-3.9-7-3.9z" fill="#e8a569"/><path d="m48.2 232.1c16.1-3.9 28-12.9 28.2-20.8-3.3 1.2-6.8 2.3-10.3 3.3-1.5-.1-3 0-4.6.1h-.2l.1-.5-2.7-.8-.2.1-3.7-9.3-16.3.7 3 12.5h-.7l-1.4 3.4.2.1-.1.1c-.5 0-1.1.1-1.6.2-7.3 1.8-13.5 5.7-18.6 10.2 6.5 3.1 17.3 3.6 28.9.7z" fill="#a0513c" opacity=".5"/><path d="m47.2 211.8c-40.3 7.9-36.8-36.1-28.8-38 0 0-6.4-10.6 5.4-20 16.5-13.1 37.6-6.2 38.2-17.3 8.3 3.3 8.9 14.9 7.6 22.2-1.6 9.1-22.4 53.1-22.4 53.1z" fill="#b75a44"/><path d="m62.4 136.8c2.4 2.1 13.9 26.6-19.4 41.8 2.5 5.2 4 11.3 4 17.9 0 5.7-1.1 11.1-3 15.8 1-.1 2.1-.3 3.2-.5 0 0 20.8-44.1 22.3-53 1.3-7.2.8-18.4-7.1-22z" fill="#a04735"/><path d="m45.5 154.4c-13.7.5-23.5 18.2-28.6 8.8-1.5 5.9 1.4 10.7 1.4 10.7-8 1.9-11.5 45.8 28.8 38l15.2-36.9c-4.3 1.8-11.4-20.8-16.8-20.6z" fill="#96402f"/><path d="m39.2 210c5.2 3.7 23.4 6.3 35.9-5.1 13-11.8-.6-20.6-5.8-38.7-4.8-17-20.3-16.5-30.6-9.8-10.1 6.6-17.4 17.1-13.3 32.3 4.3 15.4 13.8 21.3 13.8 21.3z" fill="#ffc397"/><path d="m42.3 206.4s-9.8-6.3-14.4-22.5c-1.7-6.1-1.7-11.5-.4-16.2-3.2 5.7-4.4 12.6-2.1 21 4.2 15.5 13.7 21.4 13.7 21.4 5.2 3.7 23.4 6.3 35.9-5.1.2-.2.5-.4.7-.7-12.3 8.6-28.4 5.8-33.4 2.1z" fill="#f7a27c"/><path d="m26.9 165.6c-5.5 6.1-5.6 23.8-3.4 34.5 2-3.1 14.8 5.4 19.1 2.8 0 .1-21.8-17.8-15.7-37.3z" fill="#96402f"/><path d="m38.2 205.5c-.2-2.5-4.3-6.3-7.7-6.4s-6 1.8-5.8 4.3 3 4.6 6.4 4.7 7.3-.1 7.1-2.6z" fill="#ffc397"/><path d="m36.8 205.1c-.1-1.7-2.9-4.3-5.2-4.4s-4.1 1.2-4 2.9 2.1 3.1 4.4 3.2 4.9 0 4.8-1.7z" fill="#ef8f6f"/><path d="m37.4 204.8c-.1-.8-1.5-2.1-2.6-2.1-1.2 0-2.1.6-2 1.4s1 1.5 2.2 1.5c1.2.1 2.5 0 2.4-.8z" fill="#ffc397"/><path d="m35.5 361.7-.2-6.1 23.4 2.2-.3 2.4z" fill="#ffe7a4"/><path d="m100.5 357.2-1.4-5.9-25.6 9 1 2.2z" fill="#ffe7a4"/><path d="m68.5 191.4-11.1 5.3s3.2 5.4 6.8 3.8c4.2-2 3.8-5.2 4.3-9.1z" fill="#4c301b"/><path d="m67 192.2.9 3.3-7.5 3.4-2.8-2.3z" fill="#ffe9d9"/><path d="m57.3 196.9c-.2-.2-.4-.4-.3-.6.1-.1.4-.1.6.1s.4.4.3.6-.4.1-.6-.1z" fill="#4c301b"/><path d="m68.1 191.8c-.3-.2-.4-.5-.2-.7.1-.2.4-.1.7.1s.4.5.2.7c-.2.1-.5.1-.7-.1z" fill="#4c301b"/><path d="m58 189.4c-.5-1 .4-2.3 2-3s3.3-.5 3.8.5-.4 2.3-2 3-3.3.5-3.8-.5z" fill="#ef8f6f"/><path d="m59.1 188.3c-.4-.8.3-1.9 1.7-2.5 1.3-.6 2.8-.4 3.2.4s-.3 1.9-1.7 2.5-2.8.4-3.2-.4z" fill="#ffc397"/><path d="m52.8 183.5c.4-.3-1.6-8.3-7.4-6.2-6.1 2.3-1.3 10.3-.6 10.4.7.2 7.4-3.8 8-4.2z" fill="#823a2e"/><path d="m53.2 183.6c.4-.3-1.6-7.8-7.2-6-6.2 2-1.6 9.8-.9 10 .8.2 7.6-3.5 8.1-4z" fill="#fff9e9"/><path d="m46.8 181.8c-.7-1.5-.3-3 .8-3.4s2.6.5 3.2 2c.7 1.5.3 3-.8 3.4s-2.5-.5-3.2-2z" fill="#5795aa"/><path d="m48.7 180.8c-.3-.6-.1-1.3.3-1.4s1 .3 1.2.9.1 1.3-.3 1.4c-.4.2-1-.2-1.2-.9z" fill="#a3d8e5"/><path d="m67.8 177.2c.4-.3-1.1-8.4-7-6.6-6.2 1.9-1.8 10.2-1.2 10.4.6.3 7.5-3.4 8.2-3.8z" fill="#823a2e"/><path d="m68.1 177.4c.4-.3-1.2-7.9-6.8-6.4-6.3 1.7-2.1 9.7-1.4 9.9s7.7-3.1 8.2-3.5z" fill="#fff9e9"/><path d="m62.4 174.9c-.5-1.3-.1-2.7.9-3s2.2.5 2.7 1.9c.5 1.3.1 2.7-.9 3s-2.2-.5-2.7-1.9z" fill="#5795aa"/><path d="m64.1 174.2c-.2-.6 0-1.1.3-1.2.4-.1.8.3 1 .9s0 1.1-.3 1.2c-.4 0-.8-.4-1-.9z" fill="#a3d8e5"/><path d="m36.9 176.5 5.4-5.2 1.6 2.5-5.7 3.8z" fill="#b75a44"/><path d="m65 166.4-7.6 1.5-.1-2.8 7.1-.3z" fill="#b75a44"/><path d="m29.7 293.6c-.3.9 2.2 2.6 1.7 6.2-.1.6-.3 1.5-.5 2.5-.3 1.6 0 3.5.7 3.6.5 0 .2-1.3.4-2.5.2-1 .2-1.4.4-1.3.2 0 .2 1.4.2 2.9.1 2 .4 3.3 1.1 3.3.6 0 .3-1.3.4-3 .1-1.5 0-2.2.6-2.2.3 0 .4 1 .7 2.6.4 1.8 1.1 2.9 1.6 2.8.7-.2 0-.9-.3-3.1-.3-2.8-1-5.4-.2-6.8.7-1.3 3.6.5 3.6-.9 0-1.1-2.7-1.4-6-2.2-2.5-.8-4.1-2.9-4.4-1.9z" fill="#ffc397"/><path d="m265.2 91.2 15.2-1.4 11.3 1 .3 5.3-28.9-.9z" fill="#c9cbc8"/><path d="m272.2 61.3 19.4 1.5-1 33.6-22.2-.2z" fill="#de8568"/><path d="m309 261.8c-9.9 3.3-54 2.2-72.9-10.9 0 0 14.3-35.6 21.9-36 35.7-1.8 51 46.9 51 46.9z" fill="#3f2b22"/><path d="m290.7 400.2c2.6-24.3 6.3-27.9 8.1-50.9.7-8.2-3.3-20.9-2.6-29.6 3.3-39.8 9.2-82.9 8.6-105.8-.4-14.9-57.7-22.8-64.8-5.3-3.1 7.6-.1 159.8-.9 191.6h3.7s6.9-26.4 11.5-52.4c1.5-8.4-2.2-18.6-.8-27.5 5.5-35.5 8.8-78.1 16.4-78.8 5.9-.5 11.3 40.7 13.7 78.8.6 9.6-1.1 19.8-.8 29 .9 28.3 3 50.9 3 50.9z" fill="#a0523d"/><path d="m250.5 347.1c1.5-8.4-2.2-18.6-.8-27.5 5.5-35.5 8.8-78.1 16.4-78.8.8-.1 2.3.4 3 1.6-6.4 6.5-10.5 45.3-15.5 78-1.4 8.9 2.3 19.1.8 27.5-4.6 26-11.5 52.4-11.5 52.4h-3.7c0-.6 0-1.3 0-2 1.5-5.4 7.2-28.5 11.3-51.2z" fill="#873929"/><path d="m286.8 399.4c2.6-24.3 6.2-27.9 8.1-50.9.7-8.2-3.4-20.1-2.7-28.8 3.3-39.8 1.5-61.4 1-84.3-9.1-5.3-26.3-13.3-54.4-9.9-2.4-11.3 66-18.2 66.1-11.6.6 22.9-5.3 66-8.6 105.8-.7 8.7 3.3 21.4 2.6 29.6-1.9 23-5.5 26.6-8.1 50.9h-4.8s0-.3-.1-.8z" fill="#873929"/><path d="m238.7 254.3c0-12.7.1-23.7.4-31.8l15.4-7.6c1.8 18.2-7.3 33-15.8 39.4z" fill="#a0523d" opacity=".5"/><path d="m279.8 223s17.2 1.8 25 2.8c-.5 11.3-1.7 25.1-3.2 40.1-10.2-8.8-21.8-25.4-21.8-42.9z" fill="#a0523d" opacity=".5"/><path d="m303.8 230.1c1.9.8 2.5-1.2 2.3-4-2.2-24 18.1-101.6 10-120.7-4.1-9.5-42.5-18.8-62.1-9-10.3 5.2-7.8 38-11.2 65-2.9 23.2-7.1 37.5-6.1 58.6.1 2.7.6 5.3 3.1 4.4 14.3-5 44.7-2.7 64 5.7z" fill="#b99b68"/><path d="m278.5 221.4s-14-3.2-25.2-1.6l.3 2.2s23.1.4 28.2 2z" fill="#836531"/><path d="m242.3 131.1c22.2-4.4 64.1 4.4 70.5 7.1l-2.8 6.3c-25.7-8.3-68.1-6.3-68.1-6.3z" fill="#b99b68"/><path d="m293.9 94-15.4 6.5-12.3-7.7 12.6-.8z" fill="#b99b68"/><path d="m277.1 223c.1-4.6 10.3-72.5 10.3-72.5l-2.2 74z" fill="#836531"/><path d="m257.5 221.8c-4.2-35.9 8.1-128.8 8.1-128.8l-10.2 2.2-11.2 127.8z" fill="#836531"/><path d="m258.7 145 .6-51.6 8.8-.9s-7 48.3-9.4 52.5z" fill="#836531"/><path d="m309 261.8c-12-2-27.3-20.5-28.1-40-.5-12.5 8.5-124.5 11.5-128.9 0 0 20.9 3.3 24.9 14 1.9 5.1 3.5 25.2-1.8 60.1-4.6 31.2-6.5 94.8-6.5 94.8z" fill="#dcdedb"/><path d="m285.9 151.6 16.2-56-8.6-2.6c.1-.1-8.1 48.1-7.6 58.6z" fill="#c9cbc8"/><path d="m291.9 93s.4.1 1.1.2c-3.2 8.9-11.8 116.2-11.3 128.4.7 18.8 15.1 36.7 26.8 39.7v.5c-12-2-27.3-20.5-28.1-40-.5-12.4 8.6-124.4 11.5-128.8z" fill="#acafae"/><path d="m316.2 168.1c-1.9 12.4-4.7 40.2-4.7 40.2-1.7-9.8-1.7-19 .5-39.7 2.1-20.1 4.6-25.3 6.3-34.3.1 10 .6 15.9-2.1 33.8z" fill="#c9cbc8"/><path d="m236.1 250.9c9.2-2.2 13.5-18.9 14.6-26.1 1.7-11 .2-34.4 4.1-70.8 3.4-31.9 6.6-56.1 10.1-61.7 0 0-15.7-2.2-21.3 7.9-2.6 4.6-3 27.4-7.3 62.6-4.4 37-.2 88.1-.2 88.1z" fill="#dcdedb"/><path d="m235.7 229.2c-1-36.9.3-59.1 1.3-68 3.8-35.1 7-48.6 9.6-53.2-1.7 17.4-10.8 120.9-10.9 121.2z" fill="#c9cbc8"/><path d="m250.1 224.8c1.7-11 .2-34.4 4.1-70.8 3.4-31.9 6.6-56.1 10.1-61.7 0 0-.2 0-.7 0h1.3c-3.5 5.6-6.2 30.2-9.6 62-3.9 36.4-2.9 59.5-4.6 70.5-1.1 7.2-5.4 23.9-14.6 26.1 0 0 0-.1 0-.2 8.8-2.8 12.9-18.9 14-25.9z" fill="#acafae"/><path d="m255.8 143.7.6-51.6 8.8-.9s-7 48.2-9.4 52.5z" fill="#acafae"/><path d="m225.4 401.1h19s-.8-7.4-4.6-6.4c-4.9 1.3-14.4 6.4-14.4 6.4z" fill="#c6b28a"/><path d="m279.6 401.1h16.9s-5.3-7.4-9.1-6.4c-5 1.3-7.8 6.4-7.8 6.4z" fill="#c6b28a"/><path d="m285.5 146.5 15.2-53-9-2.6c0-.1-6.7 45.1-6.2 55.6z" fill="#acafae"/><path d="m278.4 237.8c-3 1-12.9 2.8-21.6-1.8 0 0 4.6 6.5 12.3 6.7 7.7.3 9.3-4.9 9.3-4.9z" fill="#873929"/><path d="m263.8 223.4 6.6.4.1 3-6.6-.5z" fill="#c65c47"/><path d="m311.6 204.3-13.9-7.7s-1.8 6.3-.2 7.9 13.1 9.7 13.4 7.9c.5-2.2.7-8.1.7-8.1z" fill="#c9cbc8"/><path d="m312.6 203.3-14.3-7.5s-1.4 6.1.3 7.7c1.7 1.5 13.6 9.4 13.9 7.6.2-2.2.1-7.8.1-7.8z" fill="#fff"/><path d="m235.7 200.8 13.4-6.5s1.4 6.5-.2 7.9-12.8 8.5-13 6.6c-.2-2.2-.2-8-.2-8z" fill="#c9cbc8"/><path d="m234.9 199.6 13.8-6.2s1 6.2-.6 7.6-13.3 8.1-13.4 6.3c-.2-2.1.2-7.7.2-7.7z" fill="#fff"/><path d="m290.7 93.6-11.9 4.3-10-5.4 10.2-1.6z" fill="#de8568"/><path d="m307.3 143.2-13.1-4.6-.6 4 13.5 2.8z" fill="#fff"/><path d="m299.9 30c2.3-1.6 12.4-6.4 14.8-16.8 0 0 2.3 12.5-15.9 20.2z" fill="#905329"/><path d="m300.5 28.3c2-2 11.1-8.4 11.7-19.1 0 0 4.4 11.9-12.2 22.7z" fill="#905329"/><path d="m309.3 9.1c-3.4-8.9-26.4-10.7-38.8-7.9-24.9 5.5-13.2 18-13.2 18-6.6 5.4-7.2 13.5-4.9 21.8 3.6 13.3 16.2 23.8 19.7 27.9l24.2-34.3c4.9-1.5 16.4-16.6 13-25.5z" fill="#905329"/><path d="m290.7 15.2c-14.3-2.4-27.9 2.9-36-4.2-1 4.3 2.5 8.2 2.5 8.2-6.6 5.4-7.2 13.5-4.9 21.8 3.6 13.3 16.2 23.8 19.7 27.9l24.2-34.3c2-.6 5.1-3.4 7.8-7.2-4.7 0-8.3-11.3-13.3-12.2z" fill="#7c3f22"/><path d="m301.3 22.5c2.1 2.9 10.6 19.8 5.9 22.9-3 2 .7 12.3-1.2 18.4-2.5 8-7.1 20.2-11.1 23.6-21.3-5.5-25.2-26.2-22.8-33.2s-7.5-24.1-2-31.1c8.8-11 23.6-10.8 31.2-.6z" fill="#fbc297"/><path d="m309.8 42.6c-5.7-.3-8.6-4.5-9.9 4.9-1.1 7.9-8.4 22.6 2.3 27.2 2.7-5.8 5.6-12.6 4.2-27.2-.3-2.6 3-3.1 3.4-4.9z" fill="#f6a17c"/><path d="m304.8 50.6c.4-1.9-.1-3.6-1.2-3.7-1.1-.2-2.3 1.3-2.7 3.2s.1 3.6 1.2 3.7c1 .1 2.2-1.3 2.7-3.2z" fill="#543d33"/><path d="m299.9 42.8c-.7 7.8 4.3 26.2 3.1 27.3s-11-2.9-11-2.9 8.2-27.8 7.9-24.4z" fill="#fbc297"/><path d="m303.9 42.4c-1.1-.2-1.1-3.1.6-3.4s6.2 1.6 6.4 2.3c.1.4.6 2.2-1.1 2.8-1.2.3-2-1.1-5.9-1.7z" fill="#905329"/><path d="m288.8 52.6c2.2 1.5 9.7-8.6 9-10.7-.6-2.1-7.5-.5-8.6.8s-2.8 8.3-.4 9.9z" fill="#f6a17c"/><path d="m296.3 41.9c1.6 0 3.4-3.5 1.2-4.1s-9.5.9-10.2 1.7c-.4.5-2.1 2.5 0 3.4 1.2.7 3.2-.9 9-1z" fill="#905329"/><path d="m286.4 66.8.9-.1c.2 6 8.3 8.5 14.5 7.7v.4c-4.8.9-15.1.6-15.4-8z" fill="#c36951"/><path d="m290.1 75.6s2.9 1.8 7.3 1.5c-3.4 1.7-5.7 1-7.3-1.5z" fill="#ee8e6f"/><path d="m283.8 67.1s2.5.4 5.3-1c-1.8 2.1-3.5 2.3-5.3 1z" fill="#c36951"/><path d="m290.7 49c.4-1.9-.1-3.6-1.2-3.7-1.1-.2-2.3 1.2-2.7 3.2-.4 1.9.1 3.6 1.2 3.7 1.1.2 2.3-1.3 2.7-3.2z" fill="#543d33"/><path d="m277.2 55.3c-.1-6.6-5.1-26.9-2.8-36.2-1.5 1.1-2.9 2.4-4.1 4-5.5 7 4.4 24.1 2 31.1s1.4 27.7 22.8 33.2c.1-.1.3-.3.4-.4-17.4-7.1-18.3-23.1-18.3-31.7z" fill="#f6a17c"/><path d="m273.6 60.2 3.9-.1s.9-41.1-8.3-40.6-3.3 18.6-3.3 18.6z" fill="#7c3f22"/><path d="m274.9 61.2c.3-2.9-3.5-10.4-6.3-12.7-3.1-2.5-6.3-2.2-7.8.3-1.8 2.9 3.3 10.2 7.5 12.1 2.4 1 6.2 3.7 6.6.3z" fill="#fbc297"/><path d="m272.3 59.1c.2-1.8-2.1-6.3-3.8-7.7-1.9-1.5-3.8-1.3-4.8.2-1.1 1.8 2 6.2 4.6 7.4 1.5.5 3.8 2.1 4 .1z" fill="#ee8e6f"/><path d="m273.4 60.7c.2-1.1-.8-3.7-1.8-4.4-1-.8-2.2-.5-2.9.5-.8 1.2.8 3.6 2.2 4.1 1 .3 2.3 1.1 2.5-.2z" fill="#fbc297"/><path d="m271.4 19.6c-1.7 1.6-2 5.7-1.9 7.9 0 0-7.9-7-15-3.3.1-.1 4-7.4 16.9-4.6z" fill="#905329"/><path d="m292.1 23.7s-20.8 1.6-40.4.8l-.6 4.3s18.9 1.8 41.1-1.1-.1-4-.1-4z" fill="#58595b"/><path d="m291.9 23.2s-20.8 1.6-40.4.8l-.6 4.3s18.9 1.8 41.1-1.1-.1-4-.1-4z" fill="#6d6e70"/><ellipse cx="299.5" cy="24.9" fill="#808184" rx="8.8" ry="10.1" transform="matrix(.9926 -.1216 .1216 .9926 -.8079 36.5995)"/><path d="m295.3 30c-.9.1-1.8.1-2.6.1 1.9 2.9 5 4.6 8.2 4.2 4.8-.6 8.2-5.6 7.5-11.1-.2-1.3-.5-2.5-1.1-3.6-1.8 5.5-6.3 9.7-12 10.4z" fill="#d6d6d6"/><path d="m307.4 19.5c-1.7-3.6-5.2-5.8-8.9-5.3-4.8.6-8.2 5.6-7.5 11.1.2 1.8.8 3.4 1.7 4.8.9.1 1.7.1 2.6-.1 5.7-.7 10.2-4.9 12.1-10.5z" fill="#e6e6e6"/><path d="m295.4 20.2c1.5-2.4 3.9-3.5 6-3.1-.8-.3-1.7-.4-2.5-.3-3.6.4-6.1 4.1-5.6 8.2.2 1.5.8 2.9 1.6 4-1.5-2.4-1.3-6.1.5-8.8z" fill="#a6a8ab"/><path d="m302.2 20.5c1.8 1.6 2.3 4.2 1.5 6.1.4-.9.6-1.9.5-3-.3-2.8-2.6-4.8-5.1-4.5-1 .1-1.8.6-2.4 1.3 1.4-1.5 3.7-1.4 5.5.1z" fill="#fff"/><ellipse cx="299.7" cy="24.2" fill="#58595b" rx="1.9" ry="2.2" transform="matrix(.9926 -.1216 .1216 .9926 -.7179 36.6203)"/><ellipse cx="299.7" cy="24.2" fill="#929497" rx="1.1" ry="1.3" transform="matrix(.9926 -.1216 .1216 .9926 -.7179 36.6203)"/><path d="m316.6 96c-.5 2.3-.8 4.7-1 7-1.2 14.7 3 30.5 8.3 43.7.6 1.4 1.2 2.8 1.8 4.2 10.9-28.5.7-44.2-9.1-54.9z" fill="#916c66"/></svg>