<svg enable-background="new 0 0 366.5 404" viewBox="0 0 366.5 404" xmlns="http://www.w3.org/2000/svg"><ellipse cx="183.2" cy="401.4" fill="#bdb6b1" rx="183.2" ry="2.6"/><path d="m144.4 101.4c.9-1.1 24.7-9.2 35.9-15.6 15.3-8.8 29.9-18.6 38.2-23.4.7-.9 1.3-1.8 1.8-2.7-.1-.4.1-.8.4-1.4 0-.9.3-2.2.9-3.9.8-2.6-.7-5.6.5-5.8 1-.1 2 2.8 2 5.6.7-1 2.2-2.4 3.3-3.8 1.7-2.2 2.5-3.5 3.1-3s.2 2.1-1.5 4.2c-.4.5-.9 1-1.4 1.5.3.1.5.4.8.7.4-.4.8-.7 1.3-1.1 2.1-1.7 3.6-3.9 4.1-3.3s-.6 3.2-2.6 4.9c-.6.5-1.2.9-1.7 1.3.2.4.3.9.4 1.3 0 0 0 0 .1-.1 2-1.8 3.1-3.3 3.6-2.8.5.6-.2 2.1-2.2 4-1 1-2 1.8-2.8 2.2-.7.6-1.8 1.3-2.9 1.6-.8.5-1.7 1.1-2.7 1.6-11.5 12.3-60.2 45.1-74.6 45.2-6.7.2-5.9-4.7-4-7.2z" fill="#f7a27c"/><path d="m280.3 156.6c-4.3-22.1-19.3-54-46.7-70.3l-6.7 28.2c25.2 15 34.9 44.6 41.7 45.8 6.1 1 13.3 4.5 11.7-3.7z" fill="#874b3a"/><path d="m275.2 156.6c-.7-.2-19.3-24.5-24.4-29.9-12.8-13.5-2.2-32.3-13.7-38.2-1.1-.8-2.3-1.5-3.5-2.2l-6.7 28.2c25.2 15 34.9 44.6 41.7 45.8 5.6 1 12.2 4.1 11.8-2.2-1.6-.5-3.4-1.1-5.2-1.5z" fill="#6d372b"/><path d="m261.2 162.4c1.1-6.3 15.4-15.9 20.4-7.3 10.5 17.7-22.4 19-20.4 7.3z" fill="#ad6453"/><path d="m268.9 157c.2-1.4 1.1-2.9 2.4-4.4-4.9 1.9-9.5 6.3-10.1 9.9-1.6 9.2 18.5 10.4 22 1.8-6.9 1.3-15.3-1.3-14.3-7.3z" fill="#8e483a"/><path d="m243.1 202.8c15.7-14.6 33.5-23.4 35.4-35.4 1.4-9.2-2-12.5-6.8-12.1-2.4.2-10.5 8.9-13.5 14.8-6.3 12-6.1 18.3-17.2 31.9z" fill="#ffc397"/><path d="m260.4 176.2c3.7-5.5 12.6-13.3 15-13.2 1.3 0 2.4.3 3.3.9.1-6.5-3-8.9-7.1-8.6-2.4.2-10.5 8.9-13.5 14.8-6.3 12-6.1 18.3-17.2 31.9l2.1.9c9.5-10.3 10.6-16.5 17.4-26.7z" fill="#ef8f6f"/><path d="m247.1 199.1c-2.5 2.4-4.4 11.1-6.9 9.7-2.2-1.2-3.9-6.9 5.2-11.7z" fill="#ffc397"/><path d="m241.3 200.5c4.1 1.9 1.6 7.4.5 9-1.2 1.7-4.7 1.3-5.5-.2-.8-1.3 3.4-9.5 5-8.8z" fill="#ffc397"/><path d="m237.6 205.4c-2.6 1-5.8.8-5.8-.3 0-1.3 2.7-.5 4.9-2 2.3-1.6 3.8-2.5 4.4-1.6.5 1-.9 3-3.5 3.9z" fill="#ffc397"/><path d="m235.2 211.2c-1.7 2.2-3 3-3.4 2.5-.5-.5.5-1.7 2.2-3.8 1.6-2.2 3.3-5.3 3.7-4.8.4.4-.9 3.9-2.5 6.1z" fill="#ffc397"/><path d="m237.7 212.7c-1.3 2.5-3.3 4.2-3.9 3.8-.5-.3 1.1-2.4 2.4-4.9s2.2-4 2.7-3.7c.5.4 0 2.3-1.2 4.8z" fill="#ffc397"/><path d="m240.8 211.8c-1.3 2.4-2.6 3.5-3.1 3.2-.5-.4.6-1.8 2-4.3 1.3-2.4 2.3-4.1 2.9-3.8.4.4-.5 2.5-1.8 4.9z" fill="#ffc397"/><path d="m117.5 139.1c8.7-21.6 32.8-57.7 70.1-49.4l-7.1 26.2c-31.9 3.8-41.5 38-49.5 37-7.3-.8-17.5-3.8-13.5-13.8z" fill="#874b3a"/><path d="m187.6 89.7c-3-.7-5.9-1-8.8-1.2-19.9-5.3-43.7 51.4-42.3 19.9-9 9.8-22.2 17-25.8 26.1-4 10 13.1 17.5 20.2 18.4 8 1 17.7-33.3 49.5-37z" fill="#6d372b"/><path d="m177.6 398.7h6.4s1.1-74 7.2-98.6c4.1-16.4 9.8-55.3 16.5-56 3.7-.4 22.1 45.3 24.1 56s-.2 24.5.6 27.5c.7 3 22.7 57.3 23.3 72.6h7.9s-16.6-87.4-16-100.1-8.4-81.6-9.8-94.5c-1.9-17.1-67.8-11.5-64.7 6.7 1.6 9.2-4.4 38 1.7 87.8 1.5 12.2-3.8 17.2-4.4 33.1.9 4.5 7.2 65.5 7.2 65.5z" fill="#c14c4c"/><path d="m173.7 336.1c.6-15.9 5.8-19.1 4.3-31.2-6.1-49.8 3.8-69.9 5.5-73.8 21.6-1.8 43.2-7.7 55-19.1-13.5-10.3-68-15.6-65.3.3 1.6 9.2-4.8 38 1.2 87.8 1.5 12.2-3.3 17.2-3.9 33.1.8 4.4 7.1 65.5 7.1 65.5l1.8-.8c-1.2-11.7-5-57.9-5.7-61.8z" fill="#a03232"/><path d="m237.4 330.3c-.7-3 1.5-16.9-.6-27.5-2-10.7-19.5-64.9-27.3-59.7-.4.3-1.4 1.9-1.8 2.5 4.8 3.5 21.4 44.4 23.4 54.6 2 10.7.6 24.4 1.3 27.5.7 3 22.7 57.3 23.3 72.6h4.8c-2.5-18-22.4-67.1-23.1-70z" fill="#a03232"/><path d="m198.7 242.6s11.2 3 19.4-5.2c0 0-2.1 7.5-9.4 9.1-7.4 1.5-10-3.9-10-3.9z" fill="#a03232"/><path d="m172.3 224.5c-1.4-3 .9-36.6-.2-57.7-1.8-35.3-25.8-67.7 8.1-80.2 20.6-7.6 48.6-6.4 57.4 3.5 5.4 6.1 1.8 8.4-2.6 59.1-2.8 32.2 8.7 57.4 3.7 62.8-5 5.1-62.7 20.2-66.4 12.5z" fill="#513329"/><path d="m238 114.9c1.1-3.1 14-31.7-18.2-32.3 22.9 3.9 22.2 17.5 18.2 32.3z" fill="#aa6d44"/><path d="m183.8 85.2s11.4 12.6 19.7 25.3l11-28.4s-21.6 2-30.7 3.1z" fill="#3f241d"/><g fill="#aa6d44"><path d="m190.1 214.5-6.3-6.6 5-11.5 6 9.6z"/><path d="m200.6 212.6-6.2-6.6 4.9-11.3 6 9.6z"/><path d="m210.8 210.7-6.1-6.5 4.7-11.2 6 9.5z"/><path d="m220.8 208.8-6-6.4 4.6-11.1 5.9 9.3z"/><path d="m230.6 207-5.9-6.3 4.4-10.9 4.2 8.4z"/><path d="m188.5 197.3-6.3-6.6 5-11.4 6 9.8z"/><path d="m199 195.6-6.2-6.6 4.9-11.2 5.8 9.7z"/><path d="m209.2 193.9-6.1-6.5 4.7-11 5.6 9.5z"/><path d="m219.2 192.3-6-6.5 4.6-10.9 5.6 9.6z"/><path d="m228.9 190.7-5.9-6.4 4.5-10.8 4.2 8.5z"/><path d="m187.2 181.7-6.4-6.9 5.2-11.6 4.4 9.2z"/><path d="m197.7 180.1-6.2-6.8 5.1-11.4 5.7 10z"/><path d="m208 178.6-6-6.7 4.9-11.3 5.7 10.1z"/><path d="m218 177.2-5.9-6.7 4.8-11.1 5.4 9.9z"/><path d="m227.7 175.7-5.7-6.6 4.7-10.9 4 8.8z"/><path d="m185.7 164.2-6.4-7.1 5.2-11.5 5.5 9.5z"/><path d="m196.3 162.9-7-7.9 5.8-10.5 5.6 9.2z"/><path d="m206.6 161.6-6.2-7.9 5.1-10.3 5.8 10.5z"/><path d="m216.7 160.3-5.9-6.8 4.8-11.1 5.5 10.3z"/><path d="m226.4 159.1-5.7-6.8 4.7-10.9 4.1 9z"/><path d="m184.8 148-6.4-7 5.4-11.2 4.5 9.4z"/><path d="m195.5 147.1-7.4-7.9 6.6-10.1 4.7 9.7z"/><path d="m205.8 146.2-6.6-7.3 6.2-10.4 5.1 10.2z"/><path d="m215.9 145.3-5.6-6.8 5.4-10.7 5 10.1z"/><path d="m225.7 144.5-5.3-6.7 5.4-10.6 3.4 8.9z"/><path d="m183.5 130.8-6.7-7.6 5.5-11.7 5.4 10.5z"/><path d="m194.4 130.1-6.7-8.2 5.9-10.8 5.2 10.8z"/><path d="m205.1 129.4-6.1-7.4 5.6-11.3 5.6 10.8z"/><path d="m215.4 128.7-5.7-7.3 5.5-11.1 5.2 10.7z"/><path d="m225.5 128.1-5.5-7.2 5.6-11.1 3.5 9.6z"/></g><path d="m185 85.2s10.1 11.1 18.4 22.8l9.7-25.7c0 .1-19.6-2.8-28.1 2.9z" fill="#874b3a"/><path d="m187.9 85s8.3 9.2 15.2 18.8l8-21.2c-.1 0-16.3-2.4-23.2 2.4z" fill="#f2a64c"/><path d="m178.3 217.1c-1.4-3 .7-23.3-.4-44.5-1.5-28.6-11-46.9-15.7-59.1 1.5 14.8 9.2 39.1 10 53.2 1.1 21.2-1.2 54.8.2 57.7 3.7 7.8 61.5-7.4 66.4-12.6-10.7 1.5-55.1 16.6-60.5 5.3z" fill="#42261f"/><path d="m122.3 151.6c-6.3 1-20.6-9.2-14.6-16.5 12.4-15.2 26.2 14.7 14.6 16.5z" fill="#ad6453"/><path d="m117.2 135.1c.9-1.1 1.9-2 2.8-2.6-3.5-2.5-8-2.7-12.3 2.6-6 7.3 8.3 17.4 14.6 16.5 1.2-.2 2.2-.7 2.9-1.5-6.2-3-12.3-9.7-8-15z" fill="#8e483a"/><path d="m188 84.3-2.5-26.2 21.4-1.8 4.7 26c.1-.1-14.6 10.7-23.6 2z" fill="#ef8f6f"/><path d="m280.9 400.5h-26.5s4.1-9.6 7.1-8.6c3.9 1.3 19.4 8.6 19.4 8.6z" fill="#ffe0bb"/><path d="m190.7 400.5h-16.2s4.1-9.6 7.1-8.6c3.9 1.3 9.1 8.6 9.1 8.6z" fill="#ffe0bb"/><path d="m187.6 324.6c-.4-5.8-1.7-11.9-.9-15.6.7-3.7 6.7-19.2 6.7-19.2z" fill="#a03232"/><path d="m212.4 223.9-6.7 1 .4 3.7 6.7-1.1z" fill="#db6a6a"/><path d="m163.7 124c-.8-3.1-7.1-24.9 8.7-34.3-8.1 8.9-10 18-8.7 34.3z" fill="#aa6d44"/><path d="m198.1 105.3c17.2-1 26.7-16.3 27.4-21.8-4.1-1.1-8.9-1.7-13.9-1.9l-3.9-21.2c-1.9-1.4-4-2.7-6.1-3.7l-16.1 1.4 2.4 25.6c-.7.3-1.3.5-1.9.9-.7.2-1.4.4-2.2.6-.1 0-.2 0-.2 0-1.2.4-2.4.8-3.6 1.2-1.1.4-2.1.8-3 1.2-.4.1-.8.3-1.1.4-.2.1-.3.1-.5.2-1.1.5-2.2.9-3.3 1.5.1-.1.1-.1.2-.2-.3.2-.5.3-.7.5-1.4.7-2.8 1.5-4.2 2.3 2.9 6.8 19.9 13.6 30.7 13z" fill="#843c2d" opacity=".5"/><path d="m215.5 21.6c-.9-8.2 8.6-15.1-6-16-14.5-.9-21.9 2-24.7 6.4 0 0-13 1-12.6 12.1.3 8.9 5 28.1 18.1 39.7 12.9 11.7 25.2-42.2 25.2-42.2z" fill="#b75a44"/><path d="m201.8 22.8c-9.7-.9-18-4.3-23.4-8.9-3.2 1.6-6.5 4.7-6.3 10.3.3 8.9 5 28.1 18.1 39.7 12.2 10.9 23.8-35.8 25.1-41.7-4.2.8-8.7 1-13.5.6z" fill="#9b402f"/><path d="m188.2 32.5s-4.7 30.8 1.6 35.9 24.9 12.2 26.1 9.5c5.3-12.6 7.7-32.6 5.8-40.7-.6-2.5 2.6-4.3 2.2-6.5-2.7-14-12.5-21.9-22.3-19.6-11.3 2.7-12.6 10.4-13.4 21.4z" fill="#ffc397"/><path d="m193.5 67.3c-6.3-5.1-1.6-35.9-1.6-35.9.7-9.9 1.9-17 10.3-20.3-.2 0-.4.1-.6.1-11.3 2.7-12.6 10.3-13.4 21.3 0 0-4.7 30.8 1.6 35.9 5.2 4.3 19.1 10 24.2 10.1-6.2-2.2-16.2-7.7-20.5-11.2z" fill="#f7a27c"/><path d="m184.2 39c2.8 2 8.3 6.6 6.4 16.4h4s3-33.9-5.7-34.6c-8.6-.7-4.7 18.2-4.7 18.2z" fill="#9b402f"/><path d="m190.6 47.6c-.3-4.1-5.8-11.2-9.7-6.5-5.5 6.6 11.4 28.1 9.7 6.5z" fill="#ffc397"/><path d="m188.7 48.5c-.2-2.4-3.3-6.4-5.6-3.8-3.2 3.9 6.5 16.3 5.6 3.8z" fill="#ef8f6f"/><path d="m188.8 52.4c-.1-1.3-1.8-3.5-3-2-1.7 2 3.5 8.7 3 2z" fill="#ffc397"/><path d="m194.7 13.5s-8.4 9.4-6 18.8c0 0-8.4-10.7-3-17.9 5.5-7.2 9-.9 9-.9z" fill="#b75a44"/><path d="m221.9 36.9c1.2 9.2 0 19.6-2 27.2-5.1-5.7-3.6-10.9-3.1-17.4.8-8.4-1.9-16.2 6.2-15.2.4 0 .7.2 1 .5-.4 1.6-2.3 2.5-2.1 4.9z" fill="#f7a27c"/><path d="m224.1 33.4c1.2.2 2.4-2.3.3-3.1-2-.7-5.2-1.3-5.4-.9-.1.3-.8 1.3.4 2.3.7.7 2.1 1.2 4.7 1.7z" fill="#b75a44"/><path d="m216.4 31.5c-.2 1.1-2.8 9.2-8.7 9.4s1-9.2 1-9.2z" fill="#f7a27c"/><path d="m208.1 38.3c.4-1.7 1.4-3 2.2-2.9.8.2 1.1 1.7.6 3.4-.4 1.7-1.4 3-2.2 2.9s-1.1-1.6-.6-3.4z" fill="#723c2e"/><path d="m218.2 39c.3-1.8 1.2-3.1 2-3s1.2 1.6 1 3.3c-.3 1.8-1.2 3.1-2 3-.9 0-1.3-1.5-1-3.3z" fill="#723c2e"/><path d="m208.8 32.2c-1.4 0-2.2-2.6.4-3.1 2.4-.4 6.1-.5 6.1-.1 0 .3.6 1.4-1 2.2-.9.6-2.5 1-5.5 1z" fill="#b75a44"/><path d="m209.8 59.2c-.2 1.1-1.5 6.5 3 7.5 5.6 1.2 6.1-6.2 6.1-6.2z" fill="#4f2119"/><path d="m210.7 67.5c.1-.4 1.1.4 2.4.6s2.4-.2 2.3.2-1.2 1-2.5.8c-1.4-.2-2.3-1.2-2.2-1.6z" fill="#ef8f6f"/><path d="m218.3 60.7-.9 2.5-7.2-1 .1-2.8z" fill="#ffefe3"/><path d="m217.5 33.9s5 23.2 4.3 24.1-11.8-.8-12-1.6c-.2-.7 5.9-20.3 7.7-22.5z" fill="#ffc397"/><path d="m10.8 335.5c20.9-7.5 111-49.3 111-49.3s-30.5-2.7-38.2 1.3c-7.8 4-59 40.9-74.2 45.6z" fill="#ffc397"/><path d="m36.8 318.5c0-.1 0-.2 0-.4 19.6-12.4 41.8-28.1 46.7-30.6 7.8-4 38.2-1.3 38.2-1.3s-51 23.7-85.2 38.6c.2-2.1.3-4.2.3-6.3z" fill="#ef8f6f"/><path d="m99.8 396.4c7.7-20.9 33.6-116.7 33.6-116.7s-21.6 21.6-23.6 30.1c-1.9 8.5-6.6 71.5-12.8 86.2z" fill="#ffc397"/><path d="m106.4 357.7c-.7.1-1.5.1-2.2.2 2.6-21.1 4.6-43.3 5.7-48.1 1.9-8.5 23.6-30.1 23.6-30.1s-11.6 43-21.6 77.7c-1.9 0-3.7.1-5.5.3z" fill="#ef8f6f"/><path d="m132.2 50.3c-3.9-4.6-26.6-10.2-31.3 17.1 0 0-2.1 9.8 2.3 18.4 3.1 6 10 11.3 20.3 12.7 28.4 3.8 16.5-39 8.7-48.2z" fill="#b75a44"/><path d="m102 62.9c3.9 5.9 11 9.9 19.2 9.9 7.3 0 13.7-3.1 17.8-8 4.6 15.6 4.8 36.4-15.4 33.8-10.3-1.4-17.2-6.7-20.3-12.7-4.4-8.6-2.3-18.4-2.3-18.4.2-1.7.6-3.2 1-4.6z" fill="#963e2d"/><path d="m136.3 89.6 9 23.9-14.4.2-6.8-26.1z" fill="#ef8f6f"/><path d="m95.3 88c-2.9-6.2-2.1-12.7 1.9-14.4s9.6 1.9 12.5 8.1 2.1 12.7-1.9 14.4c-4 1.8-9.6-1.9-12.5-8.1z" fill="#963e2d"/><path d="m133.4 345.2c10.3-32.3 23.1-96.3 20.5-155.8-.6-12.8 15.1-50.7 12.5-56.1-2.6-5.5-15.6-26.5-31-26.1-15.5.5-7.1 52-2.5 70.7 2.1 8.2-13.3 12.8-21.1 24.1-11.8 17.3-19.6 56-69 104.2 25.7 49.5 90.6 39 90.6 39z" fill="#afe0e8"/><path d="m139.5 192.8-11-6.3 1.7-2.1 9.3 3.2z" fill="#8ecfd6"/><path d="m116.4 216.2c7.8-11.3 22.4-21.9 24-36.6 1.1-10.5-15.3-56.2-6.7-66.7 3.6 6.4 5.3 9.3 10.8 14.4 8.2 7.5 16.3 10.9 22 9.9-1.5 11.5-13.1 41.2-12.6 52.2 2.6 59.6-10.2 123.5-20.5 155.8 0 0-49.5 9.8-78.3-22.4 49.4-48.1 49.4-89.3 61.3-106.6z" fill="#8ecfd6"/><path d="m144.4 226c5.8-35 12.4-73.2-1.3-98.4 5.9 3.9 19.1 10.3 23.3 9.6-1.5 11.5-13.1 41.2-12.6 52.2 2.6 59.6-10.2 123.5-20.5 155.8 0 0-12.1 2.4-27.7.9 15.3-23.7 30.2-68.1 38.8-120.1z" fill="#7cc1c4"/><path d="m131.8 127.6c-2.1-8.8.1-16.8 4.9-17.8 4.7-1 10.3 5.3 12.3 14.1 2.1 8.8-.1 16.8-4.9 17.8s-10.3-5.3-12.3-14.1z" fill="#afe0e8"/><path d="m133.3 127.2c-1.7-7.3.1-13.9 4-14.7s8.5 4.4 10.2 11.7-.1 13.9-4 14.7c-4 .9-8.5-4.4-10.2-11.7z" fill="#ef8f6f"/><path d="m0 346.7c1.2-7.9 6.2-13.1 9.8-14.9 0 0 4 .7 3.5 2.9-1.4 4.3-8.4 3.9-13.3 12z" fill="#ffe0bb"/><path d="m110.1 402.7c-7.1-1.1-12.1-3.5-13.4-7.3 0 0 .9-3.7 2.8-2.8 3.6 2.1 2.5 5.7 10.6 10.1z" fill="#ffe0bb"/><path d="m65.9 332.4c13.4-10.8 21.4-22.2 29.6-46.9 0 0-14.9 28.3-40.4 37.9 0 0 6.8 7.1 10.8 9z" fill="#afe0e8"/><path d="m103.8 267c3.6-10.3 8.2-43.5 16.2-50.5s14.2-25.5 14.2-25.5 1 14.7-8.2 28.6c-9.3 13.9-22.2 47.4-22.2 47.4z" fill="#afe0e8"/><path d="m118.8 249.5c-2.3 7.6-4.6 31.8-10.2 37-5.6 5.3-9.5 18.9-9.5 18.9s-1.2-10.6 5.1-21c6.3-10.2 14.6-34.9 14.6-34.9z" fill="#afe0e8"/><path d="m90.2 344.3c6.1-8.7 13.3-17.5 16.4-28.6 2.4-8.9 16.1-29.8 16.1-29.8s-17.9 21.4-19.9 27.9c-4.4 14-17.3 21.2-23.4 28.1z" fill="#afe0e8"/><path d="m152.7 180.4-22.2-4.6-3.1 9.1 28 11.2z" fill="#ffebca"/><path d="m141.9 178 14.1 2.6-.4 15.6-18.4-7.3c2.6-2.4 4.4-6.4 4.7-10.9z" fill="#e5bf88"/><path d="m146.1 180.3c-2.4-.7-9.8-2.3-10.2-1.9-.5.4 10.2 3.6 10.2 3.6z" fill="#e5bf88"/><path d="m142.3 186.9c-2.4-.7-9.8-2.3-10.2-1.9-.5.4 10.2 3.6 10.2 3.6z" fill="#e5bf88"/><path d="m131.2 185.2c3.1.6 12.5 2 13.1 1.5s-13.3-3.5-13.3-3.5z" fill="#ffebca"/><path d="m126.8 121.7c.5-4.8 1.5-8.9 3.3-11.4l-5.9-22.7 12.2 1.9 7.2 19.3c4.4 1.9 8.4 5.2 11.8 8.8-3.8 3.1-10.7-5.1-18.9-5.1-3.4.1-6.8 9.9-9.7 9.2z" fill="#a0513c" opacity=".5"/><path d="m130 92.9c5.4 4.6 17.8 5.3 25 .5 0 0-.7-14.6-4.6-20.2s-4.2-3.6-4.4-4.9c-.3-1.3-7.2-12.8-13.2-15.8-4-1.9-18.9 4.8-14.8 20.5 4.2 15.7 10 18.1 12 19.9z" fill="#ffc397"/><path d="m117.5 65.3c.1 1.2.4 2.5.8 3.8 4.9 17 11.2 19.8 13.4 21.8 4.7 4.1 14 5.7 21.4 3.6-7.3 3.5-18.1 2.6-23.1-1.6-2-1.7-7.8-4.2-12-19.8-.7-3-.8-5.5-.5-7.8z" fill="#f7a27c"/><path d="m146.1 68.3c-.1-.7-.7-2.8-2.4-4.9-.7 0-2.9-2-4.6-1.2-2.1 1-10.2 1.2 2.9 14.8 3.5 3.6 9.6 8 12.5 9.5-.6-4.6-1.8-10.2-3.9-13.3-4-5.5-4.3-3.6-4.5-4.9z" fill="#f7a27c"/><path d="m125.4 76.4c-.1-2.9.4-8.9 7.4-10.1-4.4 2-6.2 4-7.4 10.1z" fill="#7f4632"/><path d="m139.8 74.6c-1.2.4 1.7 2.2 2.6 3.4s5.1 6.4 5.7.9c.4-3.2-2.5-.6-8.3-4.3z" fill="#ffc397"/><path d="m149.9 82c1.1.7 2.6 5.7.8 7.1-1.5 1.1-6.1-1.4-6.7-2.9 0-1.1 4.6-4.1 5.9-4.2z" fill="#472d1f"/><path d="m149.5 82.5c-2 .9-3.4 1.5-4.9 3.3 0 0 2.6 2.6 4.3 1.4 2.7-1.8.6-4.7.6-4.7z" fill="#fce7de"/><path d="m131.3 76.8c-.8-1.4-.7-3 .3-3.5s2.4.2 3.2 1.6.7 3-.3 3.5-2.4-.2-3.2-1.6z" fill="#5b371e"/><path d="m129 77.7c.6-2.6 1.9-5.5 6.3-5.6-3.2 1.6-4.7 3.4-6.3 5.6z" fill="#5b371e"/><path d="m140.5 71.3c-.7-1.4-.5-2.9.4-3.2s2.2.5 2.9 2c.7 1.4.5 2.9-.4 3.2s-2.2-.6-2.9-2z" fill="#5b371e"/><path d="m138.3 70.6c.8-2 2-4 6.2-3.1-3.2.5-4.6 1.7-6.2 3.1z" fill="#5b371e"/><path d="m142.3 62.7c-1.3-.6-5.4-2.2-8.2 3 2.9-3 4.8-3.7 8.2-3z" fill="#7f4632"/><path d="m124.2 84.1c-2.3-2.9-7.6-.1-7.5 2.4.2 5.2 18.8 11.8 7.5-2.4z" fill="#ffc397"/><path d="m123.6 84.9c-1.6-2-5.2-.1-5.2 1.7.2 3.6 12.9 8.1 5.2-1.7z" fill="#ef8f6f"/><path d="m125.6 85.8c-1.1-1.4-3.6-.1-3.6 1.2.1 2.5 9 5.7 3.6-1.2z" fill="#ffc397"/><path d="m132.9 88.2c-6.4 1.2-8.8-5.5-14-5.8l-.9-9.3s6.8 3.6 8.6 7.9c2.4 6 6.3 7.2 6.3 7.2z" fill="#963e2d"/><path d="m137.7 117.3c14.9 3.3 76.9-20.9 83.6-28.5 4.6-5.2-21.3 5.8-48.1 13.8-12 3.6-36.5 6-37.6 6.8-2.3 2-4.2 6.5 2.1 7.9z" fill="#ffc397"/><path d="m133.7 112c.3 1.3 1.5 2.4 4.2 3 14.5 3.2 73.9-18.5 82.6-26.4 1.4-.1 1.8-.9.8.2-6.7 7.6-69.5 32.8-84.5 29.5-4.2-.9-3.8-4.2-3.1-6.3z" fill="#ef8f6f"/><path d="m212 92.8c4.7-1.4 14.4-3.1 13-6.1-.6-1.3-3.9-4.8-5.4-3-1.7 2-4 5.3-7.1 6.6z" fill="#ffc397"/><path d="m217.1 87c1.9 4.8 7.2 2.6 8.7 1.4 1.6-1.2 1.1-5.3-.3-6.3-1.3-1-9.1 3.1-8.4 4.9z" fill="#ffc397"/><path d="m221.7 83.3c.9-2.8.6-6.6-.4-6.7-1.2-.1-.4 3.1-1.8 5.4-1.5 2.5-2.3 4.2-1.4 4.9s2.8-.8 3.6-3.6z" fill="#ffc397"/><path d="m227.2 81.1c2.1-1.7 2.8-3.1 2.4-3.7s-1.6.5-3.6 2.1c-2.1 1.7-5 3.2-4.6 3.8s3.8-.6 5.8-2.2z" fill="#ffc397"/><path d="m228.7 84.1c2.4-1.2 3.9-3.4 3.6-4.1s-2.3 1-4.6 2.2c-2.4 1.2-3.8 2.1-3.5 2.8.3.6 2.1.2 4.5-.9z" fill="#ffc397"/><path d="m227.9 87.6c2.3-1.3 3.3-2.6 3-3.3-.3-.6-1.7.5-4 1.8s-3.9 2.2-3.6 2.9c.4.7 2.3-.1 4.6-1.4z" fill="#ffc397"/><path d="m132.5 186.4c-9.9-18.2-24-31.6-21.4-43.4 2-9 6.6-11 11.1-9.2 2.3.9 6.9 11.4 7.7 17.7 1.7 13-.9 18.8 5 34.7z" fill="#ffc397"/><path d="m115.4 147.3c1.3-6.5 6.3-7.8 9.3-6.9 1.5.5 4.3 6.1 3.3 3.4-1.8-4.9-4.2-9.5-5.7-10-4.5-1.8-10.2-.4-12.2 8.6-2.6 11.7 12.5 25.8 22.5 44l1.6-.1c-10.3-13.5-20.6-29.9-18.8-39z" fill="#ef8f6f"/><path d="m127.3 176.4c2.3 3.4 2.6 10.9 5.5 10.1 2.6-.6 5.5-5.2-3.5-11.1z" fill="#ffc397"/><path d="m133.3 179.2c-4.7.9-3.2 6.1-2.2 7.7 1 1.7 4.9 2 6 .9 1-1.1-2-8.9-3.8-8.6z" fill="#ffc397"/><path d="m136.3 184.1c2.6 1.3 6.2 1.7 6.4.8.3-1.1-2.9-.9-4.9-2.6-2.2-1.8-3.7-2.8-4.5-2.2-.7.7.4 2.7 3 4z" fill="#ffc397"/><path d="m137.9 189.6c1.4 2.2 2.6 3.1 3.2 2.8s-.3-1.5-1.7-3.7-2.5-5.2-3.1-4.9.2 3.6 1.6 5.8z" fill="#ffc397"/><path d="m134.9 190.4c.9 2.4 2.8 4.2 3.5 4s-.7-2.3-1.6-4.6c-.9-2.4-1.6-3.9-2.3-3.7-.6.2-.5 1.9.4 4.3z" fill="#ffc397"/><path d="m131.7 189.1c1 2.4 2.1 3.5 2.8 3.3.6-.2-.3-1.7-1.3-4s-1.7-4-2.4-3.8-.1 2.1.9 4.5z" fill="#ffc397"/><path d="m352.4 233.4c1.1.1 2-3.3 6-3.7.7-.1 1.7-.1 2.8-.2 1.9-.1 3.8-1 3.6-1.8-.2-.6-1.5.1-2.9.2-1.2.1-1.6.2-1.6-.1 0-.2 1.4-.6 3-1.1 2.1-.6 3.3-1.4 3.1-2.2-.2-.7-1.5 0-3.4.4-1.7.3-2.4.6-2.6-.1-.1-.3 1-.7 2.5-1.6 1.8-1 2.7-2.1 2.4-2.6-.5-.8-1 .3-3.2 1.2-2.8 1.2-5.4 2.7-7.2 2.2-1.7-.5-.8-4.2-2.3-3.8-1.1.3-.5 3.5-.2 7.5.4 3.2-1.2 5.6 0 5.7z" fill="#ffc397"/><path d="m269 242.1c-.9.6-3.3-1.8-7 0-.6.3-1.5.8-2.5 1.3-1.7.9-3.7 1.1-4 .3-.2-.6 1.3-.7 2.5-1.3 1-.5 1.4-.7 1.3-1-.1-.2-1.5.2-3.2.6-2.1.5-3.6.5-3.8-.2s1.3-.7 3.1-1.4c1.6-.6 2.3-.7 2.1-1.5-.1-.3-1.2-.1-2.9 0-2.1.1-3.4-.4-3.4-1 0-.9 1-.3 3.3-.7 3-.5 6-.5 7.2-1.9 1.2-1.3-1.5-4-.1-4.5 1.1-.3 2.2 2.7 4 6.3 1.7 3 4.3 4.3 3.4 5z" fill="#ffc397"/><path d="m279.7 371.6c.4-2.7 18.5-10.3 32.9-8 14.3 2.3 25.6 6.4 25.1 9.1-.4 2.7-13.3 4.9-27.6 2.6-14.4-2.4-30.9-1-30.4-3.7z" fill="#488299"/><path d="m331.7 256.1c.4-6-6.4-45.9-25.3-48.4-9.7-1.3-27.5.9-32.4 15.5-7.4 22.4 8.8 65.4 31.6 76.4 12.5-8.6 24.8-20 26.1-43.5z" fill="#7f5644"/><path d="m296.2 217.7c11 0 19.8 11.2 25.7 3.2 7.2 13 10 31.3 9.8 35.2-1.4 23.5-13.6 34.9-26.1 43.4-21.9-10.5-37.7-50.7-32.3-73.6 5.9 5.1 14.4-8.2 22.9-8.2z" fill="#684032"/><path d="m302.9 228.1c9.9 0 19 15 20.2 33.5 1.3 18.5-5.7 33.5-15.6 33.5s-19-15-20.2-33.5c-1.3-18.6 5.7-33.5 15.6-33.5z" fill="#4f2e25"/><path d="m331 260.7c6.5-9.8 21.3-32.5 24.5-32.9.3 3.8-21.1 41.2-21.1 41.2z" fill="#ffc397"/><path d="m338.7 249c.5 2.7 2.1 5.1 3.1 6.6-5 8.7-7.4 13.4-7.4 13.4l-3.4-8.3c2.4-3.8 3.6-6 7.7-11.7z" fill="#ef8f6f"/><path d="m289.6 264.9c-6.7-8.1-23.9-29.4-26.5-29.1-3.8.5 25.3 38 25.3 38z" fill="#ffc397"/><path d="m281.2 254.8c3.3 3.9 6.3 7.6 8.4 10.1l-1.2 8.9s-4.7-6.1-10.1-13.3c1.2-1.7 2.2-3.6 2.9-5.7z" fill="#ef8f6f"/><path d="m315.4 272.9-.5-12-13.7-.4-.3 12.9z" fill="#ef8f6f"/><path d="m313.7 398.9h-1.7s3.4-41-1.9-43.2-9.7 34.6-10.6 43.2h-1.5s-1.4-59.6.8-73.4c0 0 18.8-6.2 22.7 5.5 3.8 11.6-7.8 67.9-7.8 67.9z" fill="#ffc397"/><path d="m313 380.8c.1-10.3-.6-21.9-3-23-2.9-1.2-6.5 11.8-8.4 23.6-1.7.1-2.5.2-4.1.5-.2-19.6-.2-47.5 1.1-56.2 0 0 18.8-6.6 22.7 5.8 2.3 7.1-.3 30.8-4.1 48.4-1.5-.2-2.5.9-4.2.9z" fill="#ef8f6f"/><path d="m337.4 371.8c-19-5.9-43 1.1-57.7.2 0 0 14.1-68.3 10.5-93.6-1.4-9.6 39.6-9.5 39.6 1.5 0 30.3 7.6 91.9 7.6 91.9z" fill="#71aecc"/><path d="m329.8 284.6c.7 31.6 7.5 87.2 7.5 87.2-1.9-.6-3.8-1-5.8-1.4-.6-7.4-4.8-59-1.7-85.8z" fill="#5295af"/><path d="m324.7 369.7c-6.3-.4-12.8 0-19.1.5 6.3-.9 12.9-1.5 19.1-.5z" fill="#5295af"/><path d="m290.7 283.6c5.1 29.4-4.5 84.2-5.3 88.4-2 .1-4 .1-5.8 0 .1 0 12.5-60 11.1-88.4z" fill="#5295af"/><path d="m330.1 315.2s-29.5-3.6-40.4.6l-.4 11.5s28.2-5.3 42-.8z" fill="#5295af"/><path d="m301.2 273.8c-3.8-3.5-15.9-15.3-15.9-15.3l-8.3 22.7s12.7 12.8 14.6 17.6c2.1 5.6 16.2-18.9 9.6-25z" fill="#71aecc"/><path d="m277.9 278.8c2.2 1.6 14.3 11.3 14.3 20.8-.3-.1-.9-.5-1.1-.9-1.8-4.8-14.3-17-14.3-17z" fill="#5295af"/><path d="m281.5 284.2c0-.2 5.4-24 5.4-24l-1.2-1-7.3 21.6z" fill="#5295af"/><path d="m315.5 272.2c4.8-5.4 20.4-21.2 20.4-21.2l9.6 22.9s-13.9 13.5-16.8 20.8c-2.4 5.7-16.5-18.8-13.2-22.5z" fill="#71aecc"/><path d="m329.1 292.6c.5-8.2 13.6-18.8 15.5-20.6l1.3 2.2s-12.5 11.2-15.4 18.6c-.5 1-1.7 4.7-1.4-.2z" fill="#5295af"/><path d="m317.8 271-6.9 13.9-12.5-12.7c0 .1 12.2-1.2 19.4-1.2z" fill="#a9e4fc"/><path d="m316 271-5.6 11.3-10.2-10.3c-.1.1 9.9-1.7 15.8-1z" fill="#ffc397"/><path d="m293 401.1h9s-1.3-4.4-3-4.2c-2 .1-6 4.2-6 4.2z" fill="#ffe0bb"/><path d="m310.3 401.1h9.7s-5.2-4.4-6.9-4.2c-2 .1-2.8 4.2-2.8 4.2z" fill="#ffe0bb"/><path d="m346.6 274.2-10.7-23.2-1.6.8 9.4 25.5z" fill="#a9e4fc"/><path d="m275.3 281.6 9.9-23.7 1.5.8-7.9 26.1z" fill="#a9e4fc"/><path d="m337.2 370.3c.1 1 .2 1.5.2 1.5-19-5.9-43 1.1-57.7.2 0 0 .1-.4.2-1.1 15.1.5 38.4-5.8 57.3-.6z" fill="#91cde5"/><path d="m331.7 311.8s-31.9-3.9-43.7.7l-.5 12.4s30.6-5.7 45.5-.9z" fill="#a9e4fc"/><path d="m291.4 313.7c0 3.6.6 7.1 1.7 10.2-3.4.5-5.6.9-5.6.9l.5-12.4c1-.4 2.2-.7 3.5-1-.1.8-.1 1.6-.1 2.3z" fill="#82cae0"/><path d="m330.5 313.7c0-.7 0-1.4-.1-2.1.8.1 1.3.1 1.3.1l1.3 12.3c-1.2-.4-2.5-.7-3.9-1 .9-2.9 1.4-6 1.4-9.3z" fill="#82cae0"/><path d="m310.7 289.7c-11-.8-18.7-18.4-22.2-28 3.1 3 7.8 7.5 10.8 10.4.5-.1 1-.2 1.5-.2l.2-11.4 13.7.4.4 10c.2 0 .5 0 .7.1h.6c2.6-2.8 6.7-7.1 10.5-11.1-1.1 12.1-3.6 30.8-16.2 29.8z" fill="#a0513c" opacity=".5"/><path d="m307 266c13.1.9 19.5-7.1 20.7-12 3.6-14.9-8.5-30.8-13.1-33.6-6-3.6-19.2-5.6-20.7 4.8-1.5 10.7-19 38.5 13.1 40.8z" fill="#ffc397"/><path d="m293.9 225.3c0-.1.1-.2.1-.3-.9 15.4-14.1 37 15.5 39.1 6.2.4 10.9-1.1 14.2-3.4-3.4 3.3-8.8 5.9-16.6 5.4-32.2-2.4-14.7-30.2-13.2-40.8z" fill="#f7a27c"/><path d="m293 253.5c-2-1.7-6.6-7.1-11-6.1 0 0 .7-22.1 6.3-24.4-2.9 12.7 1.1 12.4 4.7 30.5z" fill="#684032"/><path d="m285.8 253c-2-1.7-2.8-4.2-1.9-5.5s3.3-.9 5.3.8 2.8 4.2 1.9 5.5c-1 1.3-3.3.9-5.3-.8z" fill="#ffc397"/><path d="m286.6 252.5c-1.3-1.1-1.8-2.6-1.2-3.5.6-.8 2.1-.6 3.3.5 1.3 1.1 1.8 2.6 1.2 3.5-.5.8-2 .6-3.3-.5z" fill="#ef8f6f"/><path d="m288.5 253.7c-.7-.7-1.1-1.6-.7-2.1.3-.5 1.2-.4 2 .3.7.7 1.1 1.6.7 2.1s-1.3.3-2-.3z" fill="#ffc397"/><path d="m309.5 233.7-8.6 12.9c-2-1.2-3.3-2.4-4.1-5.1l9.9-10.8c1.2 1.1 2.3 2.2 2.8 3z" fill="#ffd0a6"/><path d="m325.4 234.7-6.4 9.9c-1.8-1.1-3-2.2-3.6-4.7l8.2-8.7z" fill="#ffd0a6"/><path d="m311.5 238.2c.8 5.2-2.1 9.6-6.5 9.9-4.4.2-8.6-3.8-9.4-9s2.1-9.6 6.5-9.9c4.3-.2 8.6 3.8 9.4 9zm-.6 0c-.8-4.9-4.7-8.6-8.7-8.4s-6.7 4.4-5.9 9.2c.8 4.9 4.7 8.6 8.7 8.4s6.6-4.3 5.9-9.2z" fill="#ffe7d7"/><path d="m328 236c.9 5.2-1.5 9.6-5.3 9.8s-7.6-3.8-8.5-9 1.5-9.6 5.3-9.8 7.6 3.8 8.5 9zm-.6 0c-.8-4.9-4.3-8.6-7.8-8.4s-5.7 4.3-4.9 9.2 4.3 8.6 7.8 8.4 5.7-4.3 4.9-9.2z" fill="#ffe7d7"/><path d="m308.7 239.5c-.1-1-.7-1.8-1.5-1.8s-1.3.7-1.3 1.7c.1 1 .7 1.8 1.5 1.8s1.4-.8 1.3-1.7z" fill="#472d18"/><path d="m321.7 237.6c0-1-.7-1.8-1.4-1.8-.8-.1-1.4.7-1.3 1.6 0 1 .7 1.8 1.4 1.8.7.1 1.3-.6 1.3-1.6z" fill="#472d18"/><path d="m311.4 238.2-.2-.9 3.2-.4.2.8z" fill="#ffe7d7"/><path d="m296 240.2-9.1 6.8.7.7 8.6-6.3z" fill="#ffe7d7"/><path d="m308.1 252.8c.1-1.1 12.2-2.4 13.6-2.2s-4.1 11.1-7.5 10.5c-2.4-.4-6.3-6.9-6.1-8.3z" fill="#542c23"/><path d="m310 256.6 9.8-1.5c1.3-2.3 2-4.4 1.4-4.5-1.3-.2-12.8 1.1-12.9 2.1 0 .7.7 2.3 1.7 3.9z" fill="#ffeae6"/><path d="m317.8 244.3c-.4-1-1.9-1.5-3.4-.9-1.5.5-2.4 1.8-2 2.9.4 1 1.9 1.5 3.4.9s2.4-1.8 2-2.9z" fill="#ffc397"/><path d="m316.1 246.3c-1.5.5-3 .1-3.4-.9 0-.1 0-.1 0-.2-.8.6-1.2 1.5-.9 2.2.4 1 1.9 1.5 3.4.9 1.4-.5 2.3-1.7 2-2.7-.3.4-.7.6-1.1.7z" fill="#ef8f6f"/></svg>